<svg xmlns="http://www.w3.org/2000/svg" width="759" height="553" overflow="hidden"><defs><clipPath id="a"><path d="M-2 101h759v553H-2z"/></clipPath></defs><g clip-path="url(#a)" transform="translate(2 -101)"><path fill="#FDE100" fill-rule="evenodd" stroke="#1F1A17" stroke-miterlimit="8" stroke-width="1.09428" d="M630.685 303.785c12.241 4.127 24.268 7.603 36.294 12.382 5.155 1.955 9.88 5.213 13.101 9.124 4.51 5.647 9.664 9.558 13.959 14.771-12.885 1.304-25.986 2.607-38.012-1.955-12.456-4.779-21.047-15.206-28.993-26.719-2.148-3.259-.429-5.431 1.503-8.038.215-.217 1.289.217 2.148.435ZM669.93 307.205c8.473 3 14.773 8.572 20.639 14.787 11.297 11.787 24.984 21.86 41.929 23.574 2.39.214 3.911 2.786 5.432 4.93-2.607-15.217-13.035-27.432-25.419-36.862-5.865-4.501-11.08-9.429-18.466-11.358-4.563-1.072-8.907-2.358-13.47-1.5-4.562.642-7.169 3.857-10.645 6.429ZM596.246 312.554c5.478-3.848 13.806-4.489 19.722.855 4.821 4.702 11.395 8.336 13.148 15.39.438.855 1.534 1.283 2.191 2.352 3.288 5.985.219 12.184.658 18.383-5.04-.855-8.985-4.489-13.367-7.054-8.327-5.344-14.025-12.612-21.038-19.238-2.848-2.779-3.725-8.765-1.314-10.688ZM534.435 231.911c1.289-.428.215-2.14 1.504-2.14-.215-3.425 0-7.278 2.578-9.846 4.511-4.709 8.808-9.632 15.467-11.559 5.8-1.712 11.386-2.14 17.401-2.782 1.289-.214 2.578-.428 3.652-1.07-.43.642-.43 1.712-.645 2.354-.644 1.498-.859 3.425-1.289 5.137-1.933 7.92-2.577 9.847-6.015 17.124-.429 1.07-3.437 4.495-4.081 5.565-.645.856-2.578 1.285-3.223 2.141-2.793 3.853-8.807 4.495-12.459 2.782-5.801-2.996-8.593-1.284-13.105-6.421-.429-.428 0-1.285.215-1.285Z"/><path fill="#FDE100" fill-rule="evenodd" d="M704.054 310.49c-6.635 0-13.057.214-19.478-2.357-7.278-2.786-14.555-4.5-22.047-6.857-5.352-1.714-10.489-2.357-15.626-1.714-6.422.643-12.201 4.071-17.552 7.285-14.341 8.143-20.335 23.571-29.753 37.499-5.994 8.571-11.987 16.285-19.693 22.713 13.485-.428 23.76-8.999 35.105-14.57 5.351-2.786 11.558-3.643 17.552-3 4.709.642 10.274 1.5 12.843-1.072 4.709-4.714 10.274-7.928 16.267-10.928 11.131-5.357 23.332-5.785 34.891-9.214-1.07 12-8.776 22.714-19.265 28.285 14.983-4.286 27.185 6.857 41.526 10.285 1.712.429 3.425.214 5.351.214-3.853 3.214-7.92 5.786-12.201 8.571-6.421 4.072-13.913 5.358-21.191 4.286-13.913-1.714-26.97-4.286-40.241-8.571-8.99-3-13.271-13.071-22.475-14.785-7.492-1.5-15.412 1.285-21.62 4.928-9.846 5.571-18.622 10.928-27.612 17.357-9.205 24.213-15.198 45.641-28.255 68.354-3.211 5.786-15.198 21.214-21.619 26.142 6.207 2.786 13.485 5.143 19.906 7.5 5.78 2.143 8.991 6.429 12.63 11.571 7.92 10.714 17.98 18.642 20.977 31.713 2.568 11.142.855 22.07-2.569 32.57-4.281-.428-8.348-.428-11.559-3.214-6.635-5.571-12.415-20.571-14.555-28.713.642 3.857 1.498 15.856-.643 17.785-2.568 2.357-3.424 6.214-4.495 9.642-21.404-7.499-27.184-41.998-26.756-69.854-3.425 2.357-6.207 5.785-11.772 11.142-.214 3.215.641 6.857 1.712 8.572 6.849 10.285 7.278 5.571 9.204 18.213.642 4.714 1.07 8.571-.856 12.857-2.141 4.286-1.285 10.285-3.425 14.142-1.07 1.714-3.425-2.571-4.709-4.286-6.636-8.356-7.706-5.142-12.201-14.785-1.07-2.571-2.569-5.785-1.498-8.571 2.354-5.571 1.926-11.571 2.782-17.142-1.712 1.714-4.067 3.214-4.495 5.786-.428-.429-3.211-.643-2.14-1.501-14.342 9.214-26.757 19.071-41.312 25.928-8.776 4.285-17.124 9.428-27.184 11.357-6.85 1.286-13.058 3.643-20.122 3.643l-1.498 1.5c-4.067 1.5-10.488 1.928-14.769 2.785-9.418 1.929-17.981-.429-31.894 3.214-12.629 3.215-23.76 6.857-34.89 14.357-.642.429-.428 2.143-1.071 2.571-14.341 11.571-31.465 16.5-42.596 32.356-7.491 10.714-10.06 22.928-19.692 31.713-4.923 4.5-10.489 7.714-16.482 10.072-7.706 3.214-16.054 2.999-24.402 2.785-9.204 4.286-20.121 3.428-30.396.429-2.782-.858-6.207-2.143-7.705-4.5-1.284-1.715-1.284-5.143.428-7.072.428-.214 1.07-2.142.214-1.928 28.255-4.5 68.496-32.784 72.777-34.284 40.242-35.785 67.426-65.141 184.298-78.854 91.614-37.499 160.538-145.709 119.655-234.635-29.539-74.569-103.173-80.783-103.173-80.783-11.987 0-20.763-9-20.763-9 35.533-1.499 69.781 15 69.781 15 1.07-7.286-4.709-21.427-11.559-23.57-10.702-3.215-19.907 6.642-30.395 2.785-3.639-1.286-7.064-3.428-10.275-6-5.351-4.285-11.13-7.285-14.983-13.071 5.779-.428 11.344-1.714 17.124-3-2.355-5.142-11.987-7.285-14.77-13.071-1.712-4.071 13.486-6.642 18.409-7.714-1.927-2.785-2.141-7.285-4.067-11.142-3.425-6.857-9.846-12.428-17.552-14.142 5.779-2.143 11.986-2.357 17.766-1.072 7.064 1.715 13.699 4.715 19.478 9.214-1.284-5.143-7.706-6.214-8.775-11.142-1.071-6.857-5.352-12.857-1.713-19.499 12.843 11.999 35.961 19.499 40.242 38.355 6.421-11.142 22.261-22.499 17.124-35.998 1.284 1.285 2.782 2.785 4.067 4.285 1.284 1.5 4.28-8.142 5.351-6.428 4.067 5.571 5.137 23.142 7.064 29.785 2.782 9.856 1.926 19.927-1.499 29.355-.856 2.572-2.783 5.357-4.923 7.5-5.351 4.929-13.271 3.643-19.692 6.215 3.21 2.999 6.635 5.356 10.06 8.356.642.643.642 2.786 0 3.214-3.211 1.929-7.064 3.215-9.633 5.358-1.284.856-2.568 4.499-1.712 6.642 2.14 5.357 3.639 10.928 4.281 16.499.856 7.072 6.636 10.072 13.271 10.5 2.355 6.857 9.632 7.714 12.415 12.857 1.499 2.785 4.067 4.499 5.994 6.642 7.705 8.786 16.696 15.857 22.903 25.928 5.993 9.856 6.636 20.785 9.204 31.07.856-1.5 1.07-3.428 1.713-4.928 1.284-3 3.853-5.357 4.495-8.357 2.782-11.571 2.997-22.714 2.782-34.285 0-8.571-.856-16.928-3.424-25.07-.857-2.571-1.285-5.357-2.141-7.714-1.284-3.214-1.07-7.285-.214-10.928 1.498-5.571 5.565-9.642 6.85-15 1.07-4.928-1.927-10.285 0-14.571 7.277-16.285 27.398-17.785 43.452-20.356 0 1.5-1.284 2.357-1.712 3.643-1.071 2.142-4.067 3.214-5.566 5.357-2.354 3.857-4.28 7.714-6.421 11.571-1.284 2.571-4.281 3.856-6.208 6.214-1.07 1.5-1.498 3.428-2.354 5.142 14.127-6.856 30.181-1.5 44.522-6.642-3.638 2.571-4.923 6.857-7.706 10.071-6.207 6.643-14.983 8.785-22.903 13.285-6.849 3.857-14.983.857-22.047 4.071 5.993 3.857 13.057 4.715 19.478 7.929 1.499.857 3.639.214 5.78.214-2.355 2.785-2.783 7.286-5.566 8.571-6.207 2.786-12.843 6-20.548 4.714-2.783-.428-5.138-2.571-8.135-2.786 1.285 10.714-2.568 21.214-1.926 32.142.642 12.857 0 25.713-3.639 38.57-.856 3-4.709 4.286-7.063 6.643 1.712 4.285 2.568 7.5 2.14 11.143 5.351-2.786 7.278-8.358 10.702-12.857 4.282-5.571 5.994-12.429 6.85-19.071 1.071-11.357-2.14-22.07-4.067-33.427-1.284-8.143.642-18.214 10.275-18-2.141 6.857-6.85 13.285-3.853 19.928.856 1.715 2.783-1.928 3.425-2.572 12.2-13.07 27.612-18.856 42.81-26.998 2.355-1.286 3.639-3.857 5.351-6-1.926.643-1.926 3-1.926 3.857.428 15.642-1.927 31.499-14.556 42.213-3.21 2.785-7.277 3.857-11.13 5.142-5.994 1.929-12.629.429-18.409 2.786-.428.214-1.926 1.071-2.14 1.929-6.208 18.213-3.853 41.355-20.977 53.569 3.853 7.714-.857 14.571-2.355 21.642 4.495-1.928 8.134-4.929 10.917-8.571 1.712 0 2.568-.857 3.21-1.929 3.425-7.5 6.85-14.571 10.061-22.07 2.997-7.286 8.776-12.642 14.769-17.785 10.489-8.572 22.048-13.929 35.533-16.714 1.927-.428 3.211-2.357 5.137-2.785 11.13-2.358 20.763-4.286 31.894-6.429 7.491-1.5 13.699-5.571 20.977-7.714 5.779-1.714 11.986-3.428 17.552-1.286 9.632 3.643 17.124 10.714 23.974 18.214-3.853 3.643-8.777 4.928-13.485 6.214-7.492 2.143-14.556-2.785-22.262-2.571 2.14-.429 3.211 1.5 4.281 2.571 6.208 6.214 13.485 10.5 20.977 14.571-3.639.857-6.849 4.071-10.274 4.071-9.419-.428-18.837-2.571-28.255-2.999-1.499 0-2.997 1.285-4.495 1.928l2.996.857Z"/><path fill="none" stroke="#1F1A17" stroke-miterlimit="8" stroke-width="1.09428" d="M704.554 310.99c-6.635 0-13.057.214-19.478-2.357-7.278-2.786-14.555-4.5-22.047-6.857-5.351-1.714-10.489-2.357-15.626-1.714-6.422.643-12.201 4.071-17.552 7.285-14.341 8.143-20.335 23.571-29.753 37.499-5.994 8.571-11.987 16.285-19.693 22.713 13.485-.428 23.76-8.999 35.105-14.57 5.351-2.786 11.558-3.643 17.552-3 4.709.642 10.274 1.5 12.843-1.072 4.709-4.714 10.274-7.928 16.267-10.928 11.131-5.357 23.332-5.785 34.891-9.214-1.07 12-8.776 22.714-19.265 28.285 14.983-4.286 27.185 6.857 41.526 10.285 1.712.429 3.425.214 5.352.214-3.853 3.214-7.92 5.786-12.202 8.571-6.421 4.072-13.913 5.358-21.191 4.286-13.913-1.714-26.97-4.286-40.241-8.571-8.99-3-13.271-13.071-22.475-14.785-7.492-1.5-15.412 1.285-21.62 4.928-9.846 5.571-18.622 10.928-27.612 17.357-9.204 24.213-15.198 45.641-28.255 68.354-3.211 5.786-15.198 21.214-21.619 26.142 6.208 2.786 13.485 5.143 19.906 7.5 5.78 2.143 8.991 6.429 12.63 11.571 7.92 10.714 17.98 18.642 20.977 31.713 2.568 11.143.856 22.07-2.569 32.57-4.281-.428-8.348-.428-11.559-3.214-6.635-5.571-12.414-20.571-14.555-28.713.642 3.857 1.498 15.856-.643 17.785-2.568 2.357-3.424 6.214-4.494 9.642-21.405-7.499-27.185-41.998-26.757-69.854-3.425 2.357-6.207 5.785-11.772 11.142-.214 3.215.641 6.857 1.712 8.572 6.849 10.285 7.278 5.571 9.204 18.213.642 4.714 1.07 8.571-.856 12.857-2.141 4.286-1.285 10.285-3.425 14.142-1.07 1.715-3.425-2.571-4.709-4.285-6.636-8.357-7.706-5.143-12.201-14.786-1.07-2.571-2.569-5.785-1.498-8.571 2.354-5.571 1.926-11.571 2.782-17.142-1.712 1.714-4.067 3.214-4.495 5.786-.428-.429-3.211-.643-2.14-1.501-14.342 9.214-26.757 19.071-41.312 25.928-8.776 4.286-17.124 9.428-27.184 11.357-6.85 1.286-13.058 3.643-20.122 3.643l-1.498 1.5c-4.067 1.5-10.488 1.928-14.769 2.785-9.418 1.929-17.981-.429-31.894 3.214-12.629 3.215-23.76 6.857-34.89 14.357-.642.429-.428 2.143-1.071 2.571-14.341 11.571-31.465 16.5-42.596 32.356-7.491 10.714-10.06 22.928-19.692 31.713-4.923 4.5-10.489 7.715-16.482 10.072-7.706 3.214-16.054 2.999-24.402 2.785-9.204 4.286-20.121 3.428-30.396.429-2.782-.858-6.207-2.143-7.705-4.5-1.284-1.715-1.284-5.143.428-7.071.428-.215 1.07-2.143.214-1.929 28.255-4.5 68.496-32.784 72.777-34.284 40.242-35.785 67.426-65.141 184.298-78.854 91.614-37.499 160.538-145.709 119.655-234.635-29.539-74.569-103.173-80.783-103.173-80.783-11.987 0-20.763-8.999-20.763-8.999 35.533-1.5 69.781 14.999 69.781 14.999 1.07-7.285-4.709-21.427-11.559-23.57-10.702-3.215-19.907 6.642-30.395 2.785-3.639-1.286-7.064-3.428-10.275-6-5.351-4.285-11.13-7.285-14.983-13.071 5.779-.428 11.344-1.714 17.124-3-2.355-5.142-11.987-7.285-14.77-13.071-1.712-4.071 13.486-6.642 18.409-7.714-1.927-2.785-2.141-7.285-4.067-11.142-3.425-6.857-9.846-12.428-17.552-14.142 5.779-2.143 11.986-2.357 17.766-1.072 7.064 1.715 13.699 4.715 19.478 9.214-1.284-5.143-7.706-6.213-8.775-11.142-1.071-6.857-5.352-12.857-1.713-19.499 12.843 11.999 35.961 19.499 40.242 38.355 6.421-11.142 22.261-22.499 17.124-35.998 1.284 1.285 2.782 2.785 4.067 4.285 1.284 1.5 4.28-8.142 5.351-6.428 4.067 5.571 5.137 23.142 7.064 29.785 2.782 9.856 1.926 19.927-1.499 29.355-.856 2.572-2.783 5.357-4.923 7.5-5.351 4.929-13.271 3.643-19.692 6.215 3.21 2.999 6.635 5.357 10.06 8.356.642.643.642 2.786 0 3.214-3.211 1.929-7.064 3.215-9.633 5.358-1.284.856-2.568 4.499-1.712 6.642 2.14 5.357 3.639 10.928 4.281 16.499.856 7.072 6.636 10.072 13.271 10.5 2.355 6.857 9.632 7.714 12.415 12.857 1.499 2.785 4.067 4.499 5.994 6.642 7.706 8.786 16.696 15.857 22.903 25.928 5.993 9.857 6.636 20.785 9.205 31.07.855-1.5 1.069-3.428 1.712-4.928 1.284-3 3.853-5.357 4.495-8.357 2.782-11.571 2.997-22.714 2.782-34.285 0-8.57-.856-16.928-3.424-25.07-.857-2.571-1.285-5.357-2.141-7.714-1.284-3.214-1.07-7.285-.214-10.928 1.498-5.571 5.565-9.642 6.85-15 1.07-4.928-1.927-10.285 0-14.571 7.278-16.285 27.398-17.785 43.452-20.356 0 1.5-1.284 2.357-1.712 3.643-1.071 2.142-4.067 3.214-5.566 5.357-2.354 3.857-4.28 7.714-6.421 11.571-1.284 2.571-4.281 3.856-6.208 6.214-1.07 1.5-1.498 3.428-2.354 5.142 14.127-6.856 30.181-1.5 44.522-6.642-3.638 2.571-4.923 6.857-7.706 10.071-6.207 6.643-14.983 8.785-22.903 13.285-6.849 3.857-14.983.858-22.047 4.071 5.993 3.857 13.057 4.715 19.478 7.929 1.499.857 3.639.214 5.78.214-2.355 2.785-2.783 7.286-5.566 8.571-6.207 2.786-12.843 6-20.548 4.714-2.783-.428-5.137-2.571-8.135-2.786 1.285 10.714-2.568 21.214-1.926 32.143.642 12.856 0 25.712-3.639 38.569-.856 3-4.709 4.286-7.063 6.643 1.712 4.285 2.568 7.5 2.14 11.143 5.351-2.786 7.278-8.358 10.702-12.857 4.282-5.571 5.994-12.429 6.851-19.071 1.07-11.357-2.141-22.07-4.067-33.427-1.285-8.143.641-18.214 10.274-18-2.141 6.857-6.85 13.285-3.853 19.928.856 1.715 2.783-1.928 3.425-2.571 12.2-13.071 27.612-18.857 42.81-26.999 2.355-1.286 3.639-3.857 5.351-6-1.926.643-1.926 3-1.926 3.857.428 15.642-1.927 31.499-14.556 42.213-3.21 2.785-7.277 3.857-11.13 5.142-5.994 1.929-12.629.429-18.409 2.786-.428.215-1.926 1.071-2.14 1.929-6.208 18.213-3.853 41.355-20.977 53.569 3.853 7.714-.857 14.571-2.355 21.642 4.495-1.928 8.134-4.929 10.917-8.571 1.712 0 2.569-.857 3.21-1.929 3.426-7.499 6.85-14.571 10.061-22.07 2.997-7.285 8.776-12.642 14.769-17.785 10.489-8.572 22.048-13.928 35.533-16.714 1.927-.428 3.211-2.357 5.137-2.785 11.131-2.358 20.763-4.286 31.894-6.429 7.492-1.5 13.699-5.571 20.977-7.714 5.779-1.714 11.986-3.428 17.552-1.286 9.632 3.643 17.124 10.714 23.974 18.214-3.853 3.643-8.777 4.929-13.485 6.214-7.492 2.143-14.556-2.785-22.262-2.571 2.14-.429 3.211 1.5 4.281 2.571 6.208 6.214 13.485 10.5 20.977 14.571-3.639.857-6.849 4.071-10.274 4.071-9.418-.428-18.837-2.571-28.255-2.999-1.499 0-2.997 1.285-4.495 1.928"/><path fill="#FDE100" fill-rule="evenodd" stroke="#1F1A17" stroke-miterlimit="8" stroke-width="1.09428" d="M567.42 370.178c-.213 3.66-1.71 9.257-2.992 13.346-1.069 3.445 4.916 5.167 7.909 6.673 10.688 4.736 21.376 10.333 33.133 7.965 10.474-2.152 19.452-4.735 29.713-2.798 12.612 2.368 21.163 11.624 32.064 16.79-9.833 1.937-19.024 5.381-29.071 7.749-8.551 2.153-17.101 1.722-25.866 1.937 5.558 3.23 10.902 6.889 17.101 7.104 5.344 0 10.261-2.799 15.605-4.305.427-.216.427-2.368.855-2.583 3.42-.861 7.054-.216 10.261 1.507.641.43.855 2.367 1.496 2.582 19.453 4.091 31.423 19.374 47.455 28.63-6.626 1.507-13.467 1.507-20.735 3.013 4.062 8.181 8.765 16.145 12.613 24.54-10.261-2.368-21.377-2.583-30.996-7.318-6.199-3.014-12.612-5.597-18.811-9.687-.855-.431-2.352-.215-3.634-.215 14.536 14.207 19.024 37.885 8.123 55.321-4.703-12.485-15.391-20.45-23.514-31.428-2.138-3.013-4.062-6.243-4.275-9.686-.428-7.104 2.779-14.638.641-21.311-2.566-7.749-8.978-13.561-14.322-19.804 0 1.076-11.543-7.534-11.116-6.673 4.703 9.257 19.239 25.616 19.453 35.948.213 3.014.427 8.611.213 11.625-.427 5.596-7.695 19.803-7.054 21.956-4.061-2.368-5.558-14.638-11.543-18.513-2.779-1.937-5.13-5.381-5.986-9.256-2.137-7.964 2.993-15.068 2.352-23.032 0-2.583-1.069-5.166-2.138-7.319-1.71-3.66-4.702-6.027-6.84-9.687-3.634-5.812-10.475-7.749-14.963-13.992-34.416-31.858-11.544-48.863-4.275-56.828.641 2.153-.642 5.597-.642 7.534l-.214.215ZM530.063 244.867c.643 8.717-.643 21.261 9.426 24.449 11.139 3.615 21.85-.85 30.634-6.803 4.498-3.189 8.997-7.441 11.996-12.543 2.357-4.252 2.571-10.205.643-14.244-7.07-15.733-5.356-32.74-8.355-49.111-8.355 6.166-13.068 15.307-17.995 24.024-3.213 5.74-6.855 11.906-5.57 18.921 1.286 6.378-.214 8.504 3.214 14.244 1.071 2.127 8.14 12.756 5.355 14.244-2.356 1.489-1.928 3.827-13.71 6.378-3.427-5.527-5.784-9.141-10.282-14.031-1.5-1.488-2.786-4.252-5.356-5.528Z"/><path fill="#FDE100" fill-rule="evenodd" stroke="#1F1A17" stroke-miterlimit="8" stroke-width="1.09428" d="M531.322 242.494c.21-.648 1.258-.864 1.258-1.296.63-5.4-2.726-9.935-4.613-14.687-.839-2.592-1.887-5.832-1.678-8.856.42-3.455.63-6.911 1.049-10.367.42-2.808 1.258-5.184 2.516-7.559.42-.649 1.049-1.081 1.259-1.512 2.516-6.264 6.081-11.88 8.388-18.143.839-2.161 1.468-4.536 2.726-6.696-.21 1.512.419 2.808.419 4.104.21.216 1.259.216 1.259.431.209 2.809.209 5.401 1.048 8.208 2.936 12.312 5.872 23.759 3.356 36.286-1.888 9.288-5.872 18.143-14.47 21.815-1.259.432-3.355 0-2.517-1.728ZM572.889 420.469c.859 1.073 7.3 12.452 4.079 19.107-3.864 7.943-15.888 5.153-24.047 3.006-10.52-2.791-22.115-4.938-31.347 2.147-4.509 3.649-6.871 8.802-9.233 13.525-1.288 2.577-1.502 6.441-3.22 9.232-.859 1.503-2.362 2.791-4.079 3.864 2.576-.215 4.938 0 7.514-.215 14.386-1.932 45.948-.858 52.174-11.378-3.865 5.582-13.526 12.666-16.317 19.107-.215.644-.859 1.718-.859 2.362 1.502-.215 3.65 1.502 4.508 2.147 5.368 3.864 8.589 7.943 12.454 13.096 9.232-3.65 16.532-12.882 19.753-22.113.214-.645 1.503-2.362 1.717-3.006 3.436-11.164-2.576-21.898-3.006-32.847 0-2.791 4.294-6.655 1.932-8.159a91.379 91.379 0 0 1-11.379-9.66l-.644-.215ZM628.413 359.747c2.542 4.512-3.177 7.09-6.143 8.164-5.931 2.149-11.65-.429-17.581-1.289-1.271-.215-1.906 3.223-1.271 5.156 3.177 10.958 14.828 19.337 25.419 15.899 2.965-1.075 5.931-4.512 7.837-7.735 4.448-8.378-1.906-15.683-7.625-21.484-.424.429-.848 1.074-.636 1.289Z"/><path fill="none" stroke="#1F1A17" stroke-miterlimit="8" stroke-width="0.820682" d="M459.162 152.603c3.604 2.128 7.207 4.256 11.023 5.958 10.387 4.468 20.986 7.234 31.585 11.276 1.272.426 1.696 2.341 3.392 2.766M525.111 111.268c0 1.305-2.344 15.229-2.984 16.534-1.278 2.393-5.541 9.138-7.033 11.313-2.77 4.134-4.049 7.397-6.82 11.531-1.918 2.828-3.41 4.569-3.623 7.832-.639 5.004-1.066 5.221.853 9.79M501.976 142.579c1.695 2.558.485 1.492-.242 4.049-.484 2.984-1.452 5.968-.484 8.951M474.167 134.861c5.508 7.527 12.288 13.381 19.492 19.445 1.694 1.464 3.813 1.882 5.508 3.555M454.986 172.701c2.16.846 4.104 1.902 6.263 2.113 12.094 1.48 23.756 1.903 35.202 5.496 1.512.423 2.808 1.691 4.535 1.903-1.727.845-3.455.423-5.183 0-4.319-1.691-8.422-4.016-13.174-4.016M607.363 193.343c-.208.924 0 1.846-.83 2.539-4.563 3.692-10.371 2.076-14.52 6-.829.923-.829 2.307-.207 3.461M600.06 215.015c-3.857-.621-7.714-2.069-9-6M590.192 232.993c-2.113-1.658-3.803-3.937-4.226-6.424-.845-4.973-2.113-9.739-1.69-14.712.211-.828.845-1.243 1.479-1.864M603.855 260.709c-1.899 4.859-.69 10.14 1.037 15M718.177 291.157c-6.138.806-11.852-.807-17.99-1.614-5.714-.605-11.428-2.017-16.931-3.833-1.481-.605-3.386-.202-5.079-.202M704.946 307.273c.639-1.522-.854-2.392-1.494-3.262-3.84-3.697-7.041-7.829-11.734-10.222-4.054-1.957-7.894-3.914-11.947-5.219-8.961-3.045-18.776-.435-26.669 4.785M676.855 359.045c-10.946 0-21.455.616-32.402-1.85-1.751-.616-3.065-2.055-4.598-3.082M610.883 422.564c-2.62-.64-5.676 0-8.077-1.28-5.895-2.774-11.571-4.48-17.029-7.894-2.62-1.493-5.676-3.626-5.894-6.826M683.98 457.719c-3.457-1.478-7.131-1.478-11.021-2.533-4.322-1.055-9.292-.422-13.614-1.9-5.619-1.9-11.454-2.956-16.424-6.756-3.458-2.533-7.563-4.222-9.941-7.811M643.022 464.985c-5.809-.829-10.328-4.561-15.277-7.878-1.291-.829-2.581-1.658-3.442-3.317-.215-.414-1.506-.207-1.937-.829-1.076-1.451-1.506-3.11-1.291-4.976M553.65 523.827c-.602-2.096-2.612-2.725-3.415-4.402-1.808-3.982-2.612-8.383-5.224-11.737-2.21-2.934-4.62-5.868-5.223-9.012-.402-3.143.201-6.497.201-9.85M538.588 487.497c-2.925-1.8-5.85-3.401-9-4M567.322 458.76c1.667-1.684 2.083-4.421 3.75-5.895 2.292-2.105 3.542-4.842 6.25-6.105"/><path fill="none" stroke="#1F1A17" stroke-miterlimit="8" stroke-width="0.410289" d="M452.169 132.118c5.931 1.977 11.014 5.932 16.098 9.886 7.626 5.933 13.981 12.523 22.242 17.357 1.483.659 2.965 1.537 4.66 1.757M444.975 177.135c10.379 1.098 20.324 2.414 30.703 3.95 2.162.439 4.324-.219 6.27.439 2.811.659 5.622 1.317 8.216 3.292 3.027 2.414 6.919 3.511 10.811 3.292M528.947 110.443c0 7.957-1.301 15.914-2.169 23.871-.217 3.871-1.085 7.742-2.168 11.613-1.953 6.667-7.157 10.968-10.627 16.774-1.301 2.581-1.952 5.162-3.036 7.742h.434M541.455 186.33c1.17 2.817-.195 5.634-.975 8.234-1.56 4.766-2.73 9.75-3.315 14.733-.78 6.283.39 12.35 1.365 18.85.585 3.467 0 6.717-1.17 10.183M624.147 166.168c-5.521 2.409-11.254 4.38-16.137 8.322-7.007 5.693-10.829 13.795-14.864 21.679M646.074 192.761c-2.568 1.052-4.493 3.158-7.061 3.789-5.135 1.684-10.271 2.526-15.192 4.842-.856.421-2.14 0-2.996.211-.642.21-1.284 1.052-1.926 1.263-7.061 3.157-14.55 1.263-21.825 1.895M648.008 232.697c-1.293 2.96-4.309 4.228-6.68 6.342-5.386 4.864-9.049 10.784-14.867 15.435-5.387 4.017-10.558 7.612-15.729 12.052-.862.845-1.508 1.902-1.724 3.171M695.127 283.203c2.341-1.02 4.681-1.224 7.447-1.632 1.064-.204 1.915-2.039 2.979-2.447.851-.408 2.128 0 2.978-.204 4.681-1.427 9.363-1.427 14.043-1.427 3.83-3.467 8.936 1.019 12.766 3.262 2.979 1.836 6.171 3.263 9.787 3.467M687.193 290.125c4.014-.833 7.606 1.042 11.62 1.667 3.169.625 5.704 2.083 8.662 3.541 1.056.625 2.535 1.25 4.225 1.458 1.902.417 2.958 2.292 4.859 2.917 5.282 1.874 9.93 4.999 15.634 5.207M656.923 297.785c4.566-.63 8.914.629 13.697-.63 4.782-1.049 9.13.42 13.043 2.518 4.565 2.519 8.696 5.247 13.261 7.135M694.06 314.5c1.072-.215 2.572 0 3.643.431 4.929 2.37 10.072 4.525 13.5 9.049.429.431.429 1.724.643 1.939 4.714 4.956 9 10.127 15.214 12.497M632.116 311.76c6.178 1.263 10.651 5.474 16.616 7.158 7.881 2.105 13.42 7.79 19.384 12.842M693.041 334.28c-2.577 9.13-12.883 11.739-21.257 13.043-.216 0-.216 1.087-.43 1.087-4.938.653-9.877 2.174-13.313 5.87h.215M711.1 370.874c-9.388.805-18.777.603-28.165 0-5.975-.201-11.309-2.819-17.497-3.825-7.681-1.41-15.363-1.813-21.338-6.644M633.091 369.773c-.641.675-.428 2.022-1.282 2.471-1.281 1.124-1.495 2.696-2.563 4.044-4.699 5.615-11.747 4.716-18.155 3.818h.427M651.16 412.383c-3.816-.605-7.42-2.218-11.237-2.823-6.148-.605-12.296-1.411-18.657-2.016-5.3-.605-9.965.605-15.053 1.815-5.088 1.008-10.389.806-15.053-1.21M697.984 454.041c-3.673 0-6.697-1.239-10.153-1.652-2.377-.413-4.753-.62-6.698-1.859-2.16-1.446-3.888-2.685-6.048-3.511-1.945-.62-4.105-.826-6.049-1.652-10.586-4.75-21.387-9.913-33.052-10.326M691.025 478.399c-2.795-.863-5.376-.863-7.957-4.098-2.151-2.588-5.807-2.588-8.819-4.53-5.592-3.666-10.539-7.333-16.56-10.136-11.4-5.393-23.229-9.059-34.628-14.236-2.366-1.078-4.947-2.804-7.312-4.529-5.162-4.098-9.464-8.412-14.411-12.726-2.151-1.941-4.732-3.235-7.313-4.745M631.127 460.236c4.256 6.541 2.341 14.825 4.469 22.019 1.489 4.361 5.319 7.413 8.51 10.901.425.436.851 2.18 1.277 3.052 1.915 3.27 5.106 5.886 5.745 10.028M591.711 430.399c5.555 7.98 12.888 15.098 14.666 24.804 2 10.137-.222 20.49 3.334 30.196M567.98 450.497c-3.025 1.071-5.834 2.357-9.076 2.571-9.509.643-18.801.857-28.525 2.357-4.971.858-10.806 2.143-13.399 7.072M580.091 453.497c-2.563 7.072-4.058 14.572-9.185 20.786-3.417 4.071-8.757 5.785-12.815 9.214M537.149 481.368a30.422 30.422 0 0 1 6.58 4.106c1.274 1.081 1.911 2.594 2.972 3.675 2.972 2.377 6.156 3.89 8.703 6.484 5.519 5.186 8.278 11.887 13.585 17.29 1.274 1.08 1.486 3.026 2.547 4.323 3.821 4.971 7.005 9.941 8.703 15.561 1.062 3.458 1.274 7.348.212 11.023-.424 1.728-.849 3.025-.849 4.538M531.43 489.535c.824 1.068.824 2.565.824 3.848.618 6.839-.824 13.679.206 20.732.206 2.351.823 4.916 1.441 7.268 1.647 4.702 3.294 8.977 5.765 13.679.823 1.497.412 3.847.823 5.985.412 2.992 3.295 2.778 4.942 4.488v-.213M507.185 500.649c-1.095 5.939-2.848 11.454-2.191 16.121.438 3.818 1.096 7.424 2.191 11.03 1.314 3.394 4.381 5.515 5.475 8.909.658 1.909 1.096 4.031 2.191 5.94M571.406 197.443c-1.833 1.506-3.208 3.226-3.896 5.592-1.375 6.451-3.666 12.473-2.978 18.925.916 7.096 4.353 13.548 5.499 20.859.917 5.377-1.146 10.323-4.125 14.624M590.112 216.821c.426 3.564 1.918 6.71 4.475 9.015 1.705 1.468 3.623 2.097 5.541 2.516 5.328.839 10.869.63 15.984-1.258M600.061 315.939c2.143 0 4.286.889 6 2M614.955 326.761c1.734.21 2.817 1.473 3.684 2.315 4.116 3.79 7.583 8.422 9.317 13.685"/><path fill="#FDE100" fill-rule="evenodd" stroke="#1F1A17" stroke-miterlimit="8" stroke-width="0.820682" d="M192.952 642.339c13.019-5.095 26.038-9.764 38.844-15.921 7.683-3.821 25.611-5.519 21.769 7.218-.426 1.486-4.055 3.608-6.616 4.67-6.83 2.759-14.086 2.972-21.556 4.245-11.098 1.911-21.983.85-33.295.213.854.212.854-.425.854-.425Z"/><path fill="none" stroke="#1F1A17" stroke-miterlimit="8" stroke-width="0.820682" d="M227.039 625.637c9.879-4.67 20.833-6.793 32-5.732M245.448 618.949c5.548-.58 10.891-2.516 15-6M265.072 619.619c14.125-29.543 44.729-49.522 60.353-53.986 25.253-13.177 46.655-16.153 52.647-14.665"/><path fill="#FDE100" fill-rule="evenodd" stroke="#1F1A17" stroke-miterlimit="8" stroke-width="1.09428" d="M124.642 303.785c-12.282 4.127-24.141 7.603-36 12.382-4.87 1.955-9.53 5.213-12.706 9.124-4.447 5.647-9.741 9.558-13.765 14.771 12.495 1.304 25.412 2.607 37.271-1.955 12.494-4.779 20.753-15.206 28.8-26.719 2.118-3.259.212-5.431-1.694-8.038 0-.217-1.271.217-1.906.435ZM84.181 307.205c-8.038 3-14.172 8.572-19.884 14.787-11 11.787-24.539 21.86-41.039 23.574-2.115.214-3.596 2.786-5.077 4.93 2.327-15.217 12.692-27.432 24.539-36.862 5.711-4.501 11-9.429 18.192-11.358 4.231-1.072 8.462-2.358 13.116-1.5 4.23.642 6.98 3.857 10.153 6.429ZM158.522 312.554c-5.472-3.848-13.789-4.489-19.698.855-5.035 4.702-11.601 8.336-13.352 15.39-.218.855-1.532 1.283-1.969 2.352-3.502 5.985-.219 12.184-.876 18.383 5.253-.855 8.974-4.489 13.351-7.054 8.317-5.344 14.227-12.612 21.231-19.238 2.626-2.779 3.721-8.765 1.313-10.688ZM220.57 231.911c-1.071-.428-.214-2.14-1.5-2.14.429-3.425 0-7.278-2.358-9.846-4.502-4.709-8.789-9.632-15.434-11.559-5.787-1.712-11.575-2.14-17.362-2.782-1.286-.214-2.573-.428-3.859-1.07.643.642.643 1.712.858 2.354.428 1.498.857 3.425 1.286 5.137 1.715 7.92 2.572 9.847 5.787 17.124.643 1.07 3.644 4.495 4.287 5.565.429.856 2.573 1.285 3.216 2.141 2.786 3.853 8.574 4.495 12.218 2.782 6.002-2.996 8.789-1.284 13.29-6.421.214-.428-.214-1.285-.429-1.285Z"/><path fill="#FDE100" fill-rule="evenodd" d="M50.1 310.49c6.423 0 13.06.214 19.27-2.357 7.28-2.786 14.774-4.5 22.268-6.857 5.139-1.714 10.278-2.357 15.631-1.714 6.423.643 11.99 4.071 17.343 7.285 14.346 8.143 20.556 23.571 29.977 37.499 5.781 8.571 11.776 16.285 19.699 22.713-13.704-.428-23.981-8.999-35.116-14.57-5.567-2.786-11.776-3.643-17.771-3-4.711.642-10.278 1.5-12.634-1.072-4.924-4.714-10.277-7.928-16.486-10.928-10.92-5.357-23.34-5.785-34.902-9.214 1.285 12 8.993 22.714 19.485 28.285-15.202-4.286-27.193 6.857-41.753 10.285-1.713.429-3.425.214-5.139.214 3.64 3.214 7.923 5.786 12.205 8.571 6.423 4.072 13.704 5.358 21.198 4.286 13.703-1.714 26.978-4.286 40.254-8.571 8.779-3 13.061-13.071 22.268-14.785 7.494-1.5 15.417 1.285 21.84 4.928 9.635 5.571 18.628 10.928 27.621 17.357 8.993 24.213 15.203 45.641 28.049 68.354 3.427 5.786 15.417 21.214 21.627 26.142-6.21 2.786-13.49 5.143-19.913 7.5-5.568 2.143-8.993 6.429-12.633 11.571-7.709 10.714-17.986 18.642-20.77 31.713-2.569 11.142-.856 22.07 2.57 32.57 4.282-.428 8.351-.428 11.562-3.214 6.424-5.571 12.419-20.571 14.346-28.713-.428 3.857-1.499 15.856.642 17.785 2.569 2.357 3.426 6.214 4.497 9.642 21.625-7.499 27.193-41.998 26.764-69.854 3.426 2.357 6.21 5.785 11.777 11.142.214 3.215-.428 6.857-1.713 8.572-6.638 10.285-7.28 5.571-8.993 18.213-.857 4.714-1.071 8.571.857 12.857 1.927 4.286 1.07 10.285 3.425 14.142 1.071 1.714 3.426-2.571 4.711-4.286 6.638-8.356 7.494-5.142 11.991-14.785 1.284-2.571 2.783-5.785 1.498-8.571-2.141-5.571-1.927-11.571-2.569-17.142 1.713 1.714 3.854 3.214 4.282 5.786.429-.429 3.426-.643 2.355-1.501 14.346 9.214 26.551 19.071 41.325 25.928 8.779 4.285 16.916 9.428 26.979 11.357 7.066 1.286 13.275 3.643 20.127 3.643l1.499 1.5c4.068 1.5 10.492 1.928 14.988 2.785 9.207 1.929 17.986-.429 31.904 3.214 12.633 3.215 23.767 6.857 34.687 14.357.642.429.428 2.143 1.071 2.571 14.559 11.571 31.689 16.5 42.823 32.356 7.494 10.714 10.063 22.928 19.485 31.713 4.924 4.5 10.491 7.714 16.487 10.072 7.708 3.214 16.059 2.999 24.409 2.785 9.421 4.286 20.341 3.428 30.405.429 2.998-.858 6.209-2.143 7.922-4.5 1.071-1.715 1.071-5.143-.642-7.072-.214-.214-1.071-2.142-.214-1.928-28.264-4.5-68.304-32.784-72.801-34.284-40.039-35.785-69.373-62.784-184.355-78.854-91.428-37.499-160.588-145.709-119.691-234.635 29.762-74.569 103.419-80.783 103.419-80.783 11.776 0 20.769-9 20.769-9-35.758-1.499-70.017 15-70.017 15-1.07-7.286 4.925-21.427 11.777-23.57 10.492-3.215 19.699 6.642 30.191 2.785 3.854-1.286 7.065-3.428 10.277-6 5.567-4.285 11.348-7.285 15.202-13.071-5.781-.428-11.562-1.714-17.129-3 2.141-5.142 11.776-7.285 14.56-13.071 1.927-4.071-13.275-6.642-18.2-7.714 1.927-2.785 2.141-7.285 4.068-11.142 3.426-6.857 9.636-12.428 17.344-14.142-5.782-2.143-11.991-2.357-17.772-1.072-6.852 1.715-13.489 4.715-19.27 9.214 1.284-5.143 7.708-6.214 8.564-11.142 1.285-6.857 5.353-12.857 1.713-19.499-12.847 11.999-35.972 19.499-40.04 38.355-6.638-11.142-22.482-22.499-17.129-35.998-1.499 1.285-2.784 2.785-4.282 4.285-1.071 1.5-4.283-8.142-5.353-6.428-3.855 5.571-5.139 23.142-6.853 29.785-2.783 9.856-2.14 19.927 1.285 29.355.857 2.572 2.784 5.357 4.925 7.5 5.567 4.929 13.275 3.643 19.913 6.215-3.212 2.999-6.852 5.356-10.278 8.356-.642.643-.428 2.786 0 3.214 3.212 1.929 7.066 3.215 9.85 5.358 1.071.856 2.569 4.499 1.499 6.642-2.142 5.357-3.426 10.928-4.069 16.499-1.07 7.072-6.851 10.072-13.275 10.5-2.355 6.857-9.635 7.714-12.419 12.857-1.713 2.785-4.282 4.499-6.209 6.642-7.494 8.786-16.487 15.857-22.911 25.928-5.995 9.856-6.424 20.785-9.207 31.07-.856-1.5-.856-3.428-1.713-4.928-1.284-3-3.854-5.357-4.496-8.357-2.784-11.571-2.998-22.714-2.784-34.285.215-8.571 1.071-16.928 3.64-25.07.643-2.571 1.071-5.357 2.141-7.714 1.285-3.214.857-7.285 0-10.928-1.284-5.571-5.566-9.642-6.851-15-1.071-4.928 1.927-10.285 0-14.571-7.28-16.285-27.407-17.785-43.466-20.356 0 1.5 1.284 2.357 1.927 3.643.856 2.142 4.068 3.214 5.353 5.357a156.059 156.059 0 0 1 6.423 11.571c1.499 2.571 4.497 3.856 6.21 6.214 1.285 1.5 1.713 3.428 2.569 5.142-14.346-6.856-30.19-1.5-44.75-6.642 3.853 2.571 5.138 6.857 7.922 10.071 5.995 6.643 14.988 8.785 22.91 13.285 6.638 3.857 14.988.857 22.055 4.071-5.996 3.857-13.062 4.715-19.485 7.929-1.713.857-3.854.214-5.781.214 2.141 2.785 2.569 7.286 5.353 8.571 6.423 2.786 13.061 6 20.555 4.714 2.998-.428 5.139-2.571 8.351-2.786-1.499 10.714 2.355 21.214 1.926 32.142-.856 12.857-.213 25.713 3.427 38.57 1.07 3 4.924 4.286 7.279 6.643-1.927 4.285-2.783 7.5-2.355 11.143-5.353-2.786-7.28-8.358-10.706-12.857-4.068-5.571-5.995-12.429-6.637-19.071-1.285-11.357 1.927-22.07 3.854-33.427 1.498-8.143-.428-18.214-10.278-18 2.355 6.857 6.852 13.285 3.854 19.928-.642 1.715-2.569-1.928-3.211-2.572-12.205-13.07-27.622-18.856-43.038-26.998-2.356-1.286-3.426-3.857-5.139-6 1.713.643 1.713 3 1.713 3.857-.428 15.642 2.141 31.499 14.774 42.213 3.212 2.785 7.066 3.857 11.134 5.142 5.996 1.929 12.633.429 18.2 2.786.643.214 1.927 1.071 2.142 1.929 6.208 18.213 3.854 41.355 21.197 53.569-3.854 7.714.857 14.571 2.141 21.642-4.496-1.928-7.922-4.929-10.706-8.571-1.713 0-2.783-.857-3.211-1.929-3.641-7.5-7.066-14.571-10.278-22.07-2.998-7.286-8.565-12.642-14.774-17.785-10.278-8.572-21.84-13.929-35.33-16.714-2.141-.428-3.212-2.357-5.353-2.785-11.134-2.358-20.555-4.286-31.689-6.429-7.708-1.5-13.704-5.571-20.983-7.714-5.782-1.714-11.99-3.428-17.772-1.286-9.421 3.643-17.13 10.714-23.767 18.214 3.64 3.643 8.779 4.928 13.489 6.214 7.28 2.143 14.56-2.785 22.054-2.571-2.14-.429-3.211 1.5-4.068 2.571-6.424 6.214-13.703 10.5-21.198 14.571 3.854.857 7.066 4.071 10.492 4.071 9.421-.428 18.842-2.571 28.263-2.999 1.5 0 2.998 1.285 4.497 1.928l-2.997.857Z"/><path fill="none" stroke="#1F1A17" stroke-miterlimit="8" stroke-width="1.09428" d="M50.6 310.99c6.423 0 13.061.214 19.27-2.357 7.28-2.786 14.774-4.5 22.268-6.857 5.14-1.714 10.278-2.357 15.631-1.714 6.423.643 11.99 4.071 17.343 7.285 14.346 8.143 20.556 23.571 29.977 37.499 5.781 8.571 11.776 16.285 19.699 22.713-13.704-.428-23.981-8.999-35.116-14.57-5.567-2.786-11.776-3.643-17.771-3-4.711.642-10.278 1.5-12.633-1.072-4.925-4.714-10.278-7.928-16.487-10.928-10.92-5.357-23.34-5.785-34.902-9.214 1.285 12 8.993 22.714 19.485 28.285-15.202-4.286-27.193 6.857-41.753 10.285-1.713.429-3.425.214-5.139.214 3.64 3.214 7.923 5.786 12.205 8.571 6.423 4.072 13.704 5.358 21.198 4.286 13.703-1.714 26.978-4.286 40.254-8.571 8.779-3 13.061-13.071 22.268-14.785 7.494-1.5 15.417 1.285 21.84 4.928 9.635 5.571 18.628 10.928 27.621 17.357 8.993 24.213 15.203 45.641 28.05 68.354 3.426 5.786 15.416 21.214 21.626 26.142-6.21 2.786-13.49 5.143-19.913 7.5-5.568 2.143-8.993 6.429-12.633 11.571-7.709 10.714-17.986 18.642-20.77 31.713-2.569 11.143-.856 22.07 2.57 32.57 4.282-.428 8.351-.428 11.562-3.214 6.424-5.571 12.419-20.571 14.346-28.713-.428 3.857-1.499 15.856.642 17.785 2.57 2.357 3.426 6.214 4.497 9.642 21.625-7.499 27.193-41.998 26.764-69.854 3.426 2.357 6.21 5.785 11.777 11.142.214 3.215-.428 6.857-1.713 8.572-6.638 10.285-7.28 5.571-8.993 18.213-.857 4.714-1.071 8.571.857 12.857 1.927 4.286 1.07 10.285 3.425 14.142 1.071 1.715 3.426-2.571 4.711-4.285 6.638-8.357 7.494-5.143 11.991-14.786 1.284-2.571 2.783-5.785 1.498-8.571-2.141-5.571-1.926-11.571-2.569-17.142 1.713 1.714 3.854 3.214 4.282 5.786.429-.429 3.426-.643 2.355-1.501 14.346 9.214 26.551 19.071 41.325 25.928 8.779 4.286 16.916 9.428 26.979 11.357 7.066 1.286 13.275 3.643 20.127 3.643l1.499 1.5c4.068 1.5 10.492 1.928 14.988 2.785 9.207 1.929 17.986-.429 31.904 3.214 12.633 3.215 23.767 6.857 34.687 14.357.642.429.428 2.143 1.071 2.571 14.56 11.571 31.689 16.5 42.823 32.356 7.494 10.714 10.063 22.928 19.485 31.713 4.924 4.5 10.491 7.715 16.487 10.072 7.708 3.214 16.059 2.999 24.409 2.785 9.421 4.286 20.341 3.428 30.405.429 2.998-.858 6.209-2.143 7.922-4.5 1.071-1.715 1.071-5.143-.642-7.071-.214-.215-1.071-2.143-.214-1.929-28.264-4.5-68.304-32.784-72.8-34.284-40.04-35.785-69.374-62.784-184.355-78.854-91.429-37.499-160.589-145.709-119.692-234.635 29.762-74.569 103.419-80.783 103.419-80.783 11.776 0 20.769-8.999 20.769-8.999-35.758-1.5-70.017 14.999-70.017 14.999-1.07-7.285 4.925-21.427 11.777-23.57 10.492-3.215 19.699 6.642 30.191 2.785 3.854-1.286 7.065-3.428 10.277-6 5.567-4.285 11.348-7.285 15.202-13.071-5.781-.428-11.562-1.714-17.129-3 2.141-5.142 11.776-7.285 14.56-13.071 1.927-4.071-13.275-6.642-18.2-7.714 1.927-2.785 2.141-7.285 4.068-11.142 3.426-6.857 9.636-12.428 17.344-14.142-5.782-2.143-11.991-2.357-17.772-1.072-6.852 1.715-13.489 4.715-19.27 9.214 1.284-5.143 7.708-6.213 8.564-11.142 1.285-6.857 5.353-12.857 1.713-19.499-12.847 11.999-35.972 19.499-40.04 38.355-6.637-11.142-22.482-22.499-17.129-35.998-1.499 1.285-2.784 2.785-4.282 4.285-1.071 1.5-4.283-8.142-5.353-6.428-3.855 5.571-5.139 23.142-6.853 29.785-2.783 9.856-2.14 19.927 1.285 29.355.857 2.572 2.784 5.357 4.925 7.5 5.567 4.929 13.275 3.643 19.913 6.215-3.212 2.999-6.852 5.357-10.278 8.356-.642.643-.428 2.786 0 3.214 3.212 1.929 7.066 3.215 9.85 5.358 1.071.856 2.569 4.499 1.499 6.642-2.142 5.357-3.426 10.928-4.069 16.499-1.07 7.072-6.851 10.072-13.275 10.5-2.355 6.857-9.635 7.714-12.419 12.857-1.713 2.785-4.282 4.499-6.209 6.642-7.494 8.786-16.487 15.857-22.911 25.928-5.995 9.857-6.423 20.785-9.207 31.07-.856-1.5-.856-3.428-1.713-4.928-1.284-3-3.854-5.357-4.496-8.357-2.784-11.571-2.998-22.714-2.784-34.285.215-8.57 1.071-16.928 3.64-25.07.643-2.571 1.071-5.357 2.142-7.714 1.284-3.214.856-7.285 0-10.928-1.285-5.571-5.567-9.642-6.852-15-1.071-4.928 1.927-10.285 0-14.571-7.28-16.285-27.407-17.785-43.466-20.356 0 1.5 1.284 2.357 1.927 3.643.857 2.142 4.068 3.214 5.353 5.357a156.059 156.059 0 0 1 6.423 11.571c1.499 2.571 4.497 3.856 6.21 6.214 1.285 1.5 1.713 3.428 2.569 5.142-14.346-6.856-30.19-1.5-44.75-6.642 3.854 2.571 5.138 6.857 7.922 10.071 5.995 6.643 14.988 8.785 22.911 13.285 6.637 3.857 14.987.858 22.054 4.071-5.996 3.857-13.061 4.715-19.485 7.929-1.713.857-3.854.214-5.781.214 2.141 2.785 2.569 7.286 5.353 8.571 6.423 2.786 13.061 6 20.555 4.714 2.998-.428 5.139-2.571 8.351-2.786-1.499 10.714 2.355 21.214 1.927 32.143-.857 12.856-.214 25.712 3.426 38.569 1.07 3 4.924 4.286 7.279 6.643-1.926 4.285-2.783 7.5-2.355 11.143-5.353-2.786-7.28-8.358-10.706-12.857-4.068-5.571-5.995-12.429-6.637-19.071-1.285-11.357 1.927-22.07 3.854-33.427 1.498-8.143-.428-18.214-10.278-18 2.355 6.857 6.852 13.285 3.854 19.928-.642 1.715-2.569-1.928-3.211-2.571-12.205-13.071-27.622-18.857-43.038-26.999-2.356-1.286-3.426-3.857-5.139-6 1.713.643 1.713 3 1.713 3.857-.428 15.642 2.141 31.499 14.774 42.213 3.212 2.785 7.066 3.857 11.134 5.142 5.996 1.929 12.633.429 18.2 2.786.643.215 1.928 1.071 2.142 1.929 6.209 18.213 3.854 41.355 21.197 53.569-3.854 7.714.857 14.571 2.141 21.642-4.496-1.928-7.922-4.929-10.706-8.571-1.713 0-2.783-.857-3.211-1.929-3.641-7.499-7.066-14.571-10.278-22.07-2.998-7.285-8.565-12.642-14.774-17.785-10.278-8.572-21.84-13.928-35.33-16.714-2.14-.428-3.212-2.357-5.352-2.785-11.135-2.358-20.556-4.286-31.69-6.429-7.708-1.5-13.704-5.571-20.983-7.714-5.782-1.714-11.99-3.428-17.772-1.286-9.421 3.643-17.13 10.714-23.767 18.214 3.64 3.643 8.779 4.929 13.489 6.214 7.28 2.143 14.56-2.785 22.054-2.571-2.14-.429-3.211 1.5-4.068 2.571-6.424 6.214-13.703 10.5-21.198 14.571 3.854.857 7.066 4.071 10.492 4.071 9.421-.428 18.842-2.571 28.263-2.999 1.5 0 2.998 1.285 4.497 1.928"/><path fill="#FDE100" fill-rule="evenodd" stroke="#1F1A17" stroke-miterlimit="8" stroke-width="1.09428" d="M187.603 370.178c.427 3.66 1.922 9.257 3.203 13.346 1.068 3.445-4.911 5.167-8.114 6.673-10.463 4.736-21.139 10.333-33.096 7.965-10.249-2.152-19.431-4.735-29.68-2.798-12.384 2.368-20.925 11.624-32.028 16.79 10.035 1.937 19.216 5.381 29.039 7.749 8.541 2.153 17.295 1.722 25.836 1.937-5.552 3.23-10.89 6.889-17.081 7.104-5.125 0-10.25-2.799-15.374-4.305-.641-.216-.427-2.368-.855-2.583-3.416-.861-7.046-.216-10.249 1.507-.854.43-1.067 2.367-1.708 2.582-19.43 4.091-31.388 19.374-47.402 28.63 6.62 1.507 13.665 1.507 20.712 3.013-3.844 8.181-8.755 16.145-12.598 24.54 10.462-2.368 21.352-2.583 30.96-7.318 6.407-3.014 12.598-5.597 19.004-9.687.854-.431 2.349-.215 3.417-.215-14.52 14.207-19.004 37.885-8.114 55.321 4.697-12.485 15.587-20.45 23.701-31.428 2.135-3.013 3.844-6.243 4.057-9.686.64-7.104-2.776-14.638-.427-21.311 2.562-7.749 8.968-13.561 14.306-19.804 0 1.076 11.317-7.534 10.89-6.673-4.484 9.257-19.004 25.616-19.431 35.948 0 3.014-.427 8.611 0 11.625.427 5.596 7.474 19.803 7.046 21.956 4.057-2.368 5.338-14.638 11.317-18.513 2.776-1.937 5.125-5.381 6.192-9.256 2.135-7.964-2.989-15.068-2.562-23.032.214-2.583 1.281-5.166 2.349-7.319 1.495-3.66 4.697-6.027 6.833-9.687 3.63-5.812 10.462-7.749 14.733-13.992 34.59-31.858 11.744-48.863 4.484-56.828-.641 2.153.427 5.597.427 7.534l.213.215ZM225.08 244.867c-.642 8.717.428 21.261-9.623 24.449-10.906 3.615-21.812-.85-30.366-6.803-4.705-3.189-9.196-7.441-12.19-12.543-2.352-4.252-2.352-10.205-.428-14.244 7.058-15.733 5.347-32.74 8.127-49.111 8.554 6.166 13.045 15.307 17.963 24.024 3.421 5.74 6.843 11.906 5.56 18.921-1.069 6.378.214 8.504-2.994 14.244-1.283 2.127-8.126 12.756-5.56 14.244 2.566 1.489 2.139 3.827 13.686 6.378 3.422-5.527 5.988-9.141 10.265-14.031 1.497-1.488 2.994-4.252 5.56-5.528Z"/><path fill="#FDE100" fill-rule="evenodd" stroke="#1F1A17" stroke-miterlimit="8" stroke-width="1.09428" d="M224.045 242.494c-.211-.648-1.055-.864-1.266-1.296-.633-5.4 2.954-9.935 4.642-14.687 1.055-2.592 2.11-5.832 1.688-8.856-.211-3.455-.633-6.911-1.055-10.367-.211-2.808-1.266-5.184-2.532-7.559-.211-.649-1.055-1.081-1.266-1.512-2.321-6.264-5.908-11.88-8.441-18.143-.844-2.161-1.477-4.536-2.532-6.696.211 1.512-.422 2.808-.632 4.104 0 .216-1.056.216-1.056.431-.211 2.809-.421 5.401-1.055 8.208-2.954 12.312-5.908 23.759-3.376 36.286 1.899 9.288 5.697 18.143 14.56 21.815 1.266.432 3.165 0 2.321-1.728ZM182.195 420.469c-.645 1.073-7.301 12.452-3.865 19.107 3.865 7.943 15.888 5.153 24.047 3.006 10.521-2.791 22.115-4.938 31.133 2.147 4.508 3.649 6.87 8.802 9.232 13.525 1.503 2.577 1.503 6.441 3.22 9.232.859 1.503 2.577 2.791 4.08 3.864-2.362-.215-4.939 0-7.515-.215-14.385-1.932-45.947-.858-51.959-11.378 3.865 5.582 13.312 12.666 16.103 19.107.43.644.859 1.718.859 2.362-1.503-.215-3.65 1.502-4.509 2.147-5.368 3.864-8.588 7.943-12.453 13.096-9.232-3.65-16.533-12.882-19.538-22.113-.215-.645-1.718-2.362-1.933-3.006-3.435-11.164 2.577-21.898 3.006-32.847.215-2.791-4.079-6.655-1.717-8.159 3.005-2.146 6.87-5.367 11.379-9.66l.43-.215ZM127.011 359.747c-2.535 4.512 3.169 7.09 5.916 8.164 6.128 2.149 11.621-.429 17.749-1.289 1.267-.215 1.902 3.223 1.267 5.156-3.169 10.958-15.002 19.337-25.355 15.899-3.169-1.075-6.127-4.512-7.818-7.735-4.648-8.378 1.902-15.683 7.607-21.484.211.429.634 1.074.634 1.289Z"/><path fill="none" stroke="#1F1A17" stroke-miterlimit="8" stroke-width="0.820682" d="M295.959 152.603c-3.682 2.128-7.364 4.256-11.263 5.958-10.613 4.468-21.442 7.234-32.272 11.276-1.299.426-1.733 2.341-3.465 2.766M230.159 111.268c0 1.305 2.332 15.229 3.181 16.534 1.06 2.393 5.301 9.138 6.785 11.313 2.969 4.134 4.241 7.397 6.786 11.531 2.121 2.828 3.393 4.569 3.817 7.832.424 5.004 1.06 5.221-1.061 9.79M251.728 142.579c-1.517 2.558-.434 1.492.216 4.049.65 2.984 1.516 5.968.65 8.951M281.167 134.861c-5.508 7.527-12.5 13.381-19.703 19.445-1.484 1.464-3.814 1.882-5.297 3.555M300.031 172.701c-2.149.846-4.299 1.902-6.449 2.113-11.822 1.48-23.429 1.903-35.037 5.496-1.504.423-2.794 1.691-4.514 1.903 1.72.845 3.654.423 5.159 0 4.299-1.691 8.383-4.016 13.112-4.016M148.303 193.343c.209.924 0 1.846.626 2.539 4.802 3.692 10.647 2.076 14.823 6 .835.923.627 2.307 0 3.461M154.83 215.015c3.951-.621 7.683-2.069 9-6M164.852 232.993c1.971-1.658 3.723-3.937 4.161-6.424.876-4.973 2.19-9.739 1.752-14.712 0-.828-.876-1.243-1.533-1.864M154.444 260.709c2.168 4.859.723 10.14-.903 15M37.226 291.157c6.105.806 12-.807 17.895-1.614 5.895-.605 11.368-2.017 17.052-3.833 1.474-.605 3.158-.202 5.053-.202M50.173 307.273c-.427-1.522.855-2.392 1.71-3.262 3.845-3.697 7.05-7.829 11.75-10.222 3.845-1.957 7.69-3.914 11.75-5.219 9.187-3.045 19.014-.435 26.706 4.785M78.06 359.045c10.5 0 21 .616 31.5-1.85 1.715-.616 3-2.055 4.5-3.082M143.883 422.564c2.838-.64 5.676 0 8.296-1.28 5.676-2.774 11.352-4.48 17.028-7.894 2.402-1.493 5.458-3.626 5.676-6.826M70.98 457.719c3.674-1.478 7.132-1.478 11.022-2.533 4.322-1.055 9.292-.422 13.614-1.9 5.835-1.9 11.67-2.956 16.639-6.756 3.458-2.533 7.348-4.222 9.725-7.811M112.022 464.985c6.025-.829 10.543-4.561 15.491-7.878 1.076-.829 2.582-1.658 3.443-3.317.215-.414 1.506-.207 1.936-.829.861-1.451 1.291-3.11 1.076-4.976M200.447 523.827c.685-2.096 3.195-2.725 3.879-4.402 2.054-3.982 2.967-8.383 5.934-11.737 2.51-2.934 5.248-5.868 5.933-9.012.684-3.143-.228-6.497-.228-9.85M215.588 487.497c2.7-1.8 5.625-3.401 9-4M188.51 458.76c-1.633-1.684-2.041-4.421-3.674-5.895-2.244-2.105-3.469-4.842-6.326-6.105"/><path fill="none" stroke="#1F1A17" stroke-miterlimit="8" stroke-width="0.410289" d="M303.169 132.118c-5.931 1.977-10.803 5.932-15.887 9.886-7.837 5.933-14.192 12.523-22.453 17.357-1.271.659-2.966 1.537-4.66 1.757M309.975 177.135c-10.378 1.098-20.324 2.414-30.919 3.95-2.162.439-4.324-.219-6.27.439-2.811.659-5.622 1.317-8 3.292-3.027 2.414-6.919 3.511-10.811 3.292M226.06 110.443c0 7.957 1.5 15.914 2.143 23.871.429 3.871 1.286 7.742 2.357 11.613 1.715 6.667 6.858 10.968 10.286 16.774 1.5 2.581 1.929 5.162 3.214 7.742h-.428M215.667 186.33c-1.127 2.817.188 5.634.939 8.234a66.673 66.673 0 0 1 3.38 14.733c.751 6.283-.376 12.35-1.502 18.85-.564 3.467.187 6.717 1.126 10.183M131.082 166.168c5.558 2.409 11.117 4.38 16.034 8.322 7.269 5.693 11.118 13.795 14.966 21.679M107.923 192.761c2.609 1.052 4.565 3.158 7.392 3.789 5.217 1.684 10.434 2.526 15.435 4.842.869.421 1.956 0 2.826.211.869.21 1.304 1.052 1.956 1.263 7.174 3.157 14.783 1.263 22.392 1.895M107.008 232.697c1.293 2.96 4.525 4.228 6.895 6.342 5.387 4.864 9.05 10.784 14.867 15.435 5.172 4.017 10.343 7.612 15.73 12.052.862.845 1.293 1.902 1.508 3.171M60.087 283.203c-2.35-1.02-4.7-1.224-7.479-1.632-1.068-.204-1.709-2.039-2.99-2.447-.856-.408-1.924 0-2.779-.204-4.7-1.427-9.402-1.427-14.102-1.427-4.06-3.467-9.188 1.019-12.821 3.262-2.991 1.836-6.41 3.263-9.829 3.467M68.03 290.125c-4.083-.833-7.952 1.042-11.822 1.667-3.224.625-6.018 2.083-8.812 3.541-1.29.625-2.795 1.25-4.3 1.458-1.934.417-3.224 2.292-4.943 2.917-5.59 1.874-10.318 4.999-16.122 5.207M97.924 297.785c-4.566-.63-8.914.629-13.697-.63-4.565-1.049-8.912.42-13.043 2.518-4.348 2.519-8.478 5.247-13.26 7.135M61.121 314.5c-1.277-.215-2.555 0-3.62.431-5.11 2.37-10.006 4.525-13.625 9.049-.213.431-.213 1.724-.639 1.939-4.47 4.956-8.942 10.127-15.116 12.497M123.06 311.76c-6 1.263-10.5 5.474-16.714 7.158-7.714 2.105-13.285 7.79-19.286 12.842M62.041 334.28c2.577 9.13 12.669 11.739 21.258 13.043l.215 1.087c4.938.653 10.091 2.174 13.527 5.87h-.43M44.13 370.874c9.359.805 18.717.603 28.076 0 6.169-.201 11.486-2.819 17.441-3.825 7.657-1.41 15.315-1.813 21.483-6.644M121.999 369.773c.647.675.216 2.022 1.078 2.471 1.51 1.124 1.51 2.696 2.588 4.044 4.961 5.615 12.079 4.716 18.334 3.818h-.432M104.16 412.383c3.817-.605 7.209-2.218 11.025-2.823 6.361-.605 12.509-1.411 18.869-2.016 5.089-.605 9.965.605 15.054 1.815 5.088 1.008 10.176.806 15.052-1.21M56.95 454.041c3.468 0 6.72-1.239 9.972-1.652 2.385-.413 4.77-.62 6.938-1.859 1.95-1.446 3.684-2.685 6.07-3.511 1.95-.62 4.118-.826 5.852-1.652 10.623-4.75 21.462-9.913 33.168-10.326M64.025 478.399c2.796-.863 5.377-.863 8.173-4.098 1.936-2.588 5.807-2.588 8.604-4.53 5.806-3.666 10.753-7.333 16.56-10.136 11.4-5.393 23.444-9.059 34.843-14.236 2.366-1.078 4.732-2.804 7.098-4.529 5.162-4.098 9.463-8.412 14.625-12.726 2.151-1.941 4.732-3.235 7.097-4.745M124.027 460.236c-4.302 6.541-2.366 14.825-4.517 22.019-1.29 4.361-5.376 7.413-8.601 10.901-.431.436-.646 2.18-1.076 3.052-2.15 3.27-5.161 5.886-5.806 10.028M162.83 430.399c-5.488 7.98-12.951 15.098-14.708 24.804-1.975 10.137.44 20.49-3.292 30.196M187.02 450.497c3.013 1.071 6.025 2.357 9.038 2.571 9.469.643 18.722.857 28.406 2.357 5.164.858 10.759 2.143 13.556 7.072M176.43 453.497c2.471 7.072 3.706 14.572 8.648 20.786 3.499 4.071 8.441 5.785 12.352 9.214M218.194 481.368c-2.535 1.081-4.647 2.378-6.549 4.106-1.267 1.081-1.9 2.594-3.168 3.675-2.746 2.377-5.915 3.89-8.661 6.484-5.493 5.186-8.239 11.887-13.52 17.29-1.056 1.08-1.267 3.026-2.324 4.323-3.802 4.971-6.971 9.941-8.872 15.561-1.056 3.458-1.268 7.348-.211 11.023.422 1.728.845 3.025 1.056 4.538M224.295 489.535c-.836 1.068-.627 2.565-.836 3.848-.626 6.839.836 13.679 0 20.732-.418 2.351-.835 4.916-1.671 7.268-1.463 4.702-3.344 8.977-5.851 13.679-.836 1.497-.209 3.847-.627 5.985-.418 2.992-3.552 2.778-5.015 4.488v-.213M247.532 500.649c1.087 5.939 3.044 11.454 2.174 16.121-.435 3.818-.87 7.424-2.174 11.03-1.087 3.394-4.131 5.515-5.218 8.909-.652 1.909-1.304 4.031-2.391 5.94M182.506 197.443c1.815 1.506 3.403 3.226 3.856 5.592 1.361 6.451 3.857 12.473 2.95 18.925-.908 7.096-4.311 13.548-5.445 20.859-.908 5.377 1.134 10.323 4.311 14.624M165.034 216.821c-.43 3.564-1.718 6.71-4.512 9.015-1.504 1.468-3.438 2.097-5.587 2.516-5.372.839-10.958.63-15.901-1.258M155.06 315.939c-2.143 0-4.072.889-6 2M140.54 326.761c-1.423.21-2.44 1.473-3.457 2.315-3.661 3.79-7.119 8.422-8.543 13.685"/><path fill="#FDE100" fill-rule="evenodd" stroke="#1F1A17" stroke-miterlimit="8" stroke-width="0.820682" d="M562.244 642.339c-13.019-5.095-26.038-9.764-38.631-15.921-7.896-3.821-25.824-5.519-21.982 7.218.427 1.486 4.055 3.608 6.616 4.67 7.043 2.759 14.086 2.972 21.556 4.245 11.312 1.911 22.197.85 33.295.213-.64.212-.64-.425-.854-.425Z"/><path fill="none" stroke="#1F1A17" stroke-miterlimit="8" stroke-width="0.820682" d="M528.039 625.637c-10.094-4.67-21.047-6.793-32-5.732M510.448 618.949c-5.548-.58-10.89-2.516-15-6M377.072 550.968c5.992-1.488 27.608 1.488 52.862 14.665 15.623 4.464 46.013 24.443 60.138 53.986"/><path fill="#006233" fill-rule="evenodd" stroke="#1F1A17" stroke-miterlimit="8" stroke-width="0.95748" d="M258.167 486.724c8.147-.637 16.724 2.124 24.442 4.672 2.787 1.061 7.289 2.549 7.289 5.734 0 7.646 7.29 12.318 9.863 19.114 1.501 4.247 1.286 9.132 3.216 12.955 1.501 2.973 2.144 6.159 4.931 8.282 2.573 1.912 5.789.213 8.147 2.337-7.075 3.397-13.721 13.804-24.441 9.981-5.575-2.123-6.003-9.557-6.003-15.291-14.365-1.699-18.439-13.804-22.084-27.184-1.929-7.009-6.217-13.804-5.36-20.6Z"/><path fill="none" stroke="#1F1A17" stroke-miterlimit="8" stroke-width="0.95748" d="M287.171 535.499c5.718 2.143 11.86 2.571 18 3"/><path fill="#006233" fill-rule="evenodd" stroke="#1F1A17" stroke-miterlimit="8" stroke-width="0.95748" d="M285.065 598.206c-.433-1.099-.649 7.692 3.899 15.384 2.382 4.177 5.847 7.473 9.962 8.792 1.949.659 4.764-.659 7.146.659 3.682 2.418 3.249 5.055 1.95 9.011-.65 2.637-6.064 3.736-8.663 2.637-3.682-1.099-2.166-4.834-4.331-7.252-4.549-5.275-19.492-3.297-21.007-12.088-.433-2.637 1.515-6.374 3.681-8.791 2.383-3.077 4.115-5.934 6.93-8.352h.433Z"/><path fill="#006233" fill-rule="evenodd" stroke="#1F1A17" stroke-miterlimit="8" stroke-width="0.95748" d="M365.441 553.207c-1.5 5.095-1.5 12.311-3.429 17.193-1.93 5.094-1.716 10.613-4.931 15.283-3.858 5.943-11.789 4.669-17.577 2.335-9.432-3.821-15.863-10.614-21.865-18.679-2.143-2.547-3.215-5.731-5.144-8.278-3.644-4.245-9.217-6.156-14.791-6.58-24.008-2.335-47.373-6.58-71.381-5.731-6.859.212-13.719 3.184-19.935 6.58-3.215 1.698-6.431 4.033-9.217 6.792-5.788 5.094-14.362 5.519-20.364 10.189-3.002 2.759-3.859 7.428-6.002 11.461-2.787 5.306-3.859 11.462-1.287 16.556 4.073 7.429 11.79 11.25 19.721 14.009 15.22 5.095 29.796-1.91 43.944-7.853 4.287-1.699 7.288 1.698 11.36.424 13.72-4.245 16.72-11.886 24.652-17.617-6.217-2.547-11.79-6.792-18.435-8.278-9.217-2.335-16.506 3.396-24.651 6.58-3.644 1.485-8.146 1.91-12.433 1.061-3.43-.849-6.645-2.335-9.432-4.457-.428-.425-.857-2.335.643-2.547 4.717-1.274 9.432-.425 13.934-.637 11.575-.849 22.507-5.307 34.297-3.396 6.859 1.061 13.076 4.245 18.863 7.641 4.931 2.76 9.646 5.731 14.362 8.915 1.286.849 3.001 7.217 4.287 8.066 11.79 7.853 22.722 10.613 35.798 16.98 5.788 2.76 17.363 3.821 23.151-.424 13.504-9.976 13.075-6.793 19.72-13.373 6.86-7.004 7.503-11.674 12.433-20.376 5.145-9.34 3.216-15.283 1.501-25.896-.858-5.306-5.359-4.457-4.288-5.306-5.144.425-6.43.637-11.146-.212-4.93-1.062-.429.849-.429.849l-1.929-1.274Z"/><path fill="none" stroke="#1F1A17" stroke-miterlimit="8" stroke-width="0.95748" d="M202.193 582.146c-6.549.448-12.676-1.344-19.436-2.911-4.015-1.12-8.24 0-10.564 3.583M225.127 590.034c-9.361 5.579-4.893 2.273-9.574 9.298-1.064 1.653-1.277 3.513-2.341 5.372-1.276 2.066-3.404 3.099-4.893 5.165-1.49 2.273-4.043 3.306-6.17 4.339-2.128.827-4.681.62-7.022.827M287.783 593.172c.221-3.941.662-7.663.882-11.385.221-1.97.883-3.941 1.544-5.692a78.421 78.421 0 0 1 7.059-12.48c1.103-1.97 3.088-3.065 4.632-4.816.662-.657.221-1.752.883-2.628M354.082 588.224c9.835-5.018 10.904.437 19.669-5.454 8.552-5.673 10.904-5.892 11.331-6.546"/><path fill="#D7110E" fill-rule="evenodd" stroke="#1F1A17" stroke-miterlimit="8" stroke-width="0.95748" d="M497.943 486.697c-7.933-.638-16.723 2.128-24.442 4.681-2.787 1.063-7.289 2.553-7.289 5.744 0 7.659-7.29 12.34-9.863 19.148-1.5 4.255-1.286 9.149-3.215 12.978-1.501 2.979-2.144 6.17-4.932 8.297-2.572 1.915-5.788.213-8.147 2.341 7.719 3.829 15.008 13.403 24.442 9.999 5.574-2.127 6.217-9.574 6.003-15.318 14.365-1.702 18.438-13.829 22.083-27.233 1.93-7.021 6.218-13.829 5.36-20.637Z"/><path fill="none" stroke="#1F1A17" stroke-miterlimit="8" stroke-width="0.95748" d="M468.653 535.499c-6.035 2.143-12.517 2.571-19 3"/><path fill="#D7110E" fill-rule="evenodd" stroke="#1F1A17" stroke-miterlimit="8" stroke-width="0.95748" d="M471.008 599.254c.434-1.096.651 7.886-4.128 15.553-2.389 3.943-5.865 7.229-9.776 8.544-1.954.657-4.996-.658-7.168.657-3.91 2.41-3.259 5.257-2.173 8.982.869 2.847 6.083 3.724 8.907 2.847 3.693-1.314 2.173-5.038 4.127-7.229 4.78-5.476 19.769-3.505 21.072-12.268.435-2.628-1.52-6.352-3.476-8.762-2.607-3.067-4.127-5.914-7.168-8.105l-.217-.219Z"/><path fill="#D7110E" fill-rule="evenodd" stroke="#1F1A17" stroke-miterlimit="8" stroke-width="0.95748" d="M394.183 556.33c1.284 5.138-.642 9.205 1.284 14.129 1.926 5.138 1.711 10.704 4.921 15.415 3.852 5.994 11.769 4.709 17.546 2.355 9.201-3.854 15.834-10.705 21.825-18.84 1.926-2.569 2.996-5.78 5.136-8.349 3.637-4.282 9.201-6.209 14.764-6.637 23.965-2.355 47.288-6.636 71.253-5.78 6.848.214 13.695 3.211 19.9 6.636 3.209 1.713 6.419 4.068 9.201 6.851 5.777 5.138 14.336 5.566 20.113 10.276 3.21 2.783 4.066 7.493 6.206 11.56 2.781 5.353 3.851 11.561 1.283 16.699-4.066 7.493-11.768 11.347-19.685 14.13-15.193 5.138-29.743-1.927-43.865-7.921-4.279-1.713-9.415 3.425-13.266 1.712-11.769-5.566-16.262-12.416-23.965-18.197 6.204-2.355 13.052-7.707 19.471-9.206 9.415-2.355 16.476 3.426 24.821 6.637 3.638 1.499 8.131 1.927 12.41 1.071 3.424-.857 6.634-2.355 9.415-4.496.428-.429.856-2.355-.641-2.569-4.708-1.285-9.416-.429-13.909-.643-11.555-.856-22.467-5.352-34.236-3.425-6.847 1.07-13.052 4.282-18.829 7.707-4.922 2.784-9.843 5.78-14.336 8.991-1.284.857-2.996 7.28-4.28 8.136-11.769 7.921-22.681 10.704-35.734 17.127-5.777 2.783-16.261 2.14-23.108-.429-7.918-2.997-12.411-2.355-18.831-8.991-6.847-7.279-3.851-8.135-8.772-16.913-5.35-9.42-4.066-13.701-4.494-24.619-.428-9.848-3.423-13.488-4.707-14.344 5.135.642 8.131-.428 13.266.642 5.136 1.071 2.996-1.498 7.275 1.071l2.568.214Z"/><path fill="none" stroke="#1F1A17" stroke-miterlimit="8" stroke-width="0.95748" d="M554.883 582.146c6.768.448 13.098-1.344 20.085-2.911 4.147-1.12 8.295 0 10.915 3.583M532.06 590.034c9.429 5.579 4.929 2.273 9.643 9.298 1.071 1.653 1.286 3.513 2.357 5.372 1.286 2.066 3.429 3.099 4.929 5.165 1.5 2.273 3.857 3.306 6.214 4.339 2.143.827 4.5.62 6.857.827M469.431 593.172c-.206-3.941-.618-7.663-.824-11.385-.206-1.97-.823-3.941-1.647-5.692-1.647-4.379-3.912-8.32-6.382-12.48-1.236-1.97-2.883-3.065-4.324-4.816-.618-.657-.206-1.752-.824-2.628M408.815 592.037c-14.071-.192-19.128 0-29.461-3.077-.66-.192-1.1-1.154-1.539-1.923"/><path fill="#D7110E" fill-rule="evenodd" stroke="#1F1A17" stroke-miterlimit="8" stroke-width="0.95748" d="M371.38 553.366s-8.242 3.014-11.834-7.535c-3.592-10.333-10.355-17.222-10.355-17.222s6.763-2.154 10.989-.647c0 0 13.312 2.154 14.791 6.029 1.48 3.659 6.551 12.701 2.959 18.514-3.803 6.028-6.55.861-6.55.861Z"/><path fill="none" stroke="#1F1A17" stroke-miterlimit="8" stroke-width="0.95748" d="M365.322 540.224s5.001 4.582 5.001 12"/><path fill="#006233" fill-rule="evenodd" stroke="#1F1A17" stroke-miterlimit="8" stroke-width="0.95748" d="M386.857 553.627s13.074 2.801 13.946-11.199c.871-10.985-4.358-13.354-4.358-13.354s-8.717-1.939-12.64.862c0 0-11.984.646-9.588 4.092 3.052 4.307.654 14.431 6.102 19.169 5.23 4.738 6.538.43 6.538.43Z"/><path fill="none" stroke="#1F1A17" stroke-miterlimit="8" stroke-width="0.95748" d="M389.216 537.497s4.572 8.144-1.306 15"/><path fill="#FDE100" fill-rule="evenodd" stroke="#000" stroke-linecap="round" stroke-linejoin="round" stroke-miterlimit="10" stroke-width="1.08199" d="M508.527 451.5c-50.031-1.502-279.454-144.218-281.027-166.945l12.669-21.055c22.756 32.953 257.294 171.748 280.331 166.829l-11.974 21.164"/><path fill="#FDE100" fill-rule="evenodd" stroke="#000" stroke-linecap="round" stroke-linejoin="round" stroke-miterlimit="10" stroke-width="1.08199" d="M236.707 260.422c-4.49 12.046 59.889 51.726 137.348 98.692 77.455 46.963 144.242 75.986 149.192 71.824.303-.537 2.436-4.197 2.24-4.167-.927 1.394-3.186 1.834-6.71.821-20.926-6.017-75.505-30.993-143.098-71.856-67.591-40.867-126.398-78.526-135.538-94.528-.636-1.108-1.089-3.131-.997-4.705l-.222-.003-1.946 3.391-.267.532h-.002Zm272.299 191.657c-.849 1.535-2.431 1.586-5.436 1.257-18.721-2.065-75.529-29.606-142.747-69.721-78.214-46.675-142.81-89.205-135.802-100.321l1.907-3.36.376.116c-6.302 18.837 127.481 95.099 135.357 99.961 77.409 47.811 142.669 75.73 148.444 68.474l-2.101 3.603v-.004Z"/><path fill="#FDE100" fill-rule="evenodd" stroke="#000" stroke-linecap="round" stroke-linejoin="round" stroke-miterlimit="10" stroke-width="1.08199" d="M379.083 298.499c50.071-.396 111.859-6.852 147.417-21.045l-7.661-12.466c-21.017 11.65-83.145 19.31-140.179 20.456-67.456-.621-115.071-6.912-138.928-22.944l-7.232 13.275c43.856 18.586 88.797 22.533 146.584 22.725"/><path fill="#FDE100" fill-rule="evenodd" stroke="#000" stroke-linecap="round" stroke-linejoin="round" stroke-miterlimit="10" stroke-width="1.08199" d="M528.495 277.13c-1.223 1.951-24.404 9.922-58.553 15.805-23.154 3.519-53.356 6.528-91.047 6.565-35.809.033-65.061-2.508-87.207-5.501-35.847-5.605-54.348-13.403-61.188-16.159.654-1.297 1.074-2.206 1.705-3.418 19.69 7.817 38.277 12.531 60.052 15.872 22.001 2.971 50.9 5.549 86.532 5.516 37.516-.038 67.385-3.276 90.405-6.691 35.018-5.632 54.147-12.88 56.833-16.246l2.473 4.257h-.003Zm-6.721-12.582c-3.796 3.04-22.707 9.727-55.98 15.026-22.206 3.173-50.44 6.014-86.514 6.049-34.271.033-62.27-2.27-83.567-5.363-33.791-4.401-51.776-12.339-58.26-14.653a190.96 190.96 0 0 1 1.977-3.324c5.045 2.533 22.401 9.559 56.654 14.397 21.055 2.977 49.097 5.196 83.198 5.161 35.903-.037 63.816-2.932 85.881-6.088 33.445-4.589 51.442-13.117 54.175-15.253l2.438 4.045v.004ZM214.631 357.954c30.751 16.603 99.051 24.969 163.684 25.545 58.849.094 135.516-9.131 164.185-24.381l-.789-16.618c-8.969 14.07-91.128 27.567-164.034 27.014-72.907-.552-140.609-11.855-163.177-26.488l.131 14.924"/><path fill="#FDE100" fill-rule="evenodd" stroke="#000" stroke-linecap="round" stroke-linejoin="round" stroke-miterlimit="10" stroke-width="1.08199" d="m544.482 356.068.001 3.965c-4.316 5.174-31.378 12.995-65.316 18.502-25.828 3.97-59.503 6.965-101.463 6.965-39.863 0-71.653-2.85-96.305-6.645-38.969-5.689-63.896-15.653-68.899-18.626l.022-4.625c15.03 10.019 55.75 17.348 69.423 19.591 24.493 3.77 56.093 6.598 95.758 6.598 41.763 0 75.248-2.974 100.915-6.918 24.348-3.527 59.034-12.698 65.863-18.805h.001Zm.017-14.102.001 3.965c-4.316 5.171-31.379 12.992-65.316 18.499-25.829 3.97-59.503 6.965-101.463 6.965-39.864 0-71.653-2.847-96.306-6.645-38.969-5.687-63.895-15.65-68.898-18.625l.022-4.625c15.029 10.018 55.749 17.348 69.423 19.588 24.492 3.773 56.093 6.602 95.757 6.602 41.764 0 75.249-2.976 100.915-6.923 24.348-3.526 59.034-12.697 65.863-18.804l.002.003ZM378.029 449.099c-70.924-.421-131.696-19.225-144.529-22.333l9.358 14.567c22.668 9.482 81.955 23.612 135.852 22.047 53.898-1.563 101.001-5.715 134.195-21.783L522.5 426.5c-22.621 10.594-99.605 22.49-144.471 22.598"/><path fill="#FDE100" fill-rule="evenodd" stroke="#000" stroke-linecap="round" stroke-linejoin="round" stroke-miterlimit="10" stroke-width="1.03864" d="M517.053 438.321a222.197 222.197 0 0 1-4.314 6.395c-15.692 5.559-40.416 11.396-50.85 13.098-21.312 4.412-54.286 7.671-83.551 7.686-62.97-.926-114.514-13.312-138.763-23.877l-1.956-3.38.319-.508 3.319 1.293c43.123 15.502 91.556 21.686 137.436 22.797 29.147.103 58.325-3.357 81.919-7.596 36.182-7.284 50.811-12.775 55.3-15.264l1.142-.643h-.002Zm8.339-13.818c.036.043.073.084.108.13a459.8 459.8 0 0 1-3.261 5.447c-8.369 3.006-31.081 9.683-64.248 14.343-21.852 2.991-35.435 5.888-78.906 6.736-81.458-2.083-134.199-18.086-146.728-22.034l-1.857-3.578c47.208 12.382 95.43 21.026 148.588 21.91 39.771-.852 56.691-3.794 78.363-6.763 38.674-6.043 58.16-12.44 64.008-14.287a4.609 4.609 0 0 0-.256-.333l4.193-1.574-.004.003Z"/><path fill="#FDE100" fill-rule="evenodd" stroke="#000" stroke-linecap="round" stroke-linejoin="round" stroke-miterlimit="10" stroke-width="1.08199" d="M525.771 345.088c.229 46.609-23.597 88.433-42.788 106.884-27.151 26.105-63.15 42.896-105.189 43.67-46.945.863-91.209-29.773-103.082-43.232-23.212-26.313-42.111-59.728-42.717-104.761 2.876-50.868 22.824-86.302 51.741-110.601 28.916-24.299 67.418-36.133 99.483-35.286 36.997.977 80.213 19.145 110.075 55.213 19.563 23.632 28.036 49.277 32.477 88.113ZM378.192 185.5c90.158 0 164.308 73.445 164.308 163.499 0 90.053-74.15 163.501-164.308 163.501-90.158 0-163.692-73.446-163.692-163.501 0-90.054 73.534-163.499 163.692-163.499"/><path fill="#FDE100" fill-rule="evenodd" stroke="#000" stroke-linecap="round" stroke-linejoin="round" stroke-miterlimit="10" stroke-width="1.08199" d="M378.5 185.5c90.329 0 164 73.673 164 164.002 0 90.326-73.672 163.998-164 163.998-90.329 0-164-73.67-164-163.998 0-90.329 73.673-164.002 164-164.002ZM218.109 349.502c0 88.21 72.444 160.392 160.391 160.392 87.949 0 160.393-72.182 160.393-160.392 0-88.213-72.446-160.394-160.393-160.394s-160.391 72.184-160.391 160.394Z"/><path fill="#FDE100" fill-rule="evenodd" stroke="#000" stroke-linecap="round" stroke-linejoin="round" stroke-miterlimit="10" stroke-width="1.08199" d="M378.5 198.5c82.252 0 150 67.732 150 150.501 0 82.77-67.75 150.499-150 150.499s-150-67.729-150-150.499c0-82.769 67.752-150.501 150-150.501ZM232.102 349c0 80.781 66.123 146.884 146.398 146.884 80.275 0 146.398-66.103 146.398-146.884 0-80.782-66.121-146.885-146.398-146.885-80.275 0-146.398 66.103-146.398 146.885Z"/><path fill="#FDE100" fill-rule="evenodd" stroke="#000" stroke-linecap="round" stroke-linejoin="round" stroke-miterlimit="10" stroke-width="1.08199" d="M385.436 184.5H371.5l.016 330H385.5Z"/><path fill="#FDE100" fill-rule="evenodd" stroke="#000" stroke-linecap="round" stroke-linejoin="round" stroke-miterlimit="10" stroke-width="1.08199" d="M383.801 182.5h3.668l.031 333.997h-3.671l-.027-333.997Zm-14.301.003h3.696l.005 333.997h-3.699V182.503Z"/><path fill="#FDE100" fill-rule="evenodd" stroke="#000" stroke-linecap="round" stroke-linejoin="round" stroke-miterlimit="10" stroke-width="1.08199" d="M542.5 355.5v-12.288l-9.929-9.323-56.362-15.036-81.226-8.353-97.803 5.012-69.623 16.707L213.5 342.71v12.292l35.607-16.1 84.542-13.366h81.226l59.677 6.683 41.442 10.024Z"/><path fill="#FDE100" fill-rule="evenodd" stroke="#000" stroke-linecap="round" stroke-linejoin="round" stroke-miterlimit="10" stroke-width="1.08199" d="M378.588 323.755c38.725-.073 76.298 3.718 106.101 9.6 30.752 6.23 52.395 14.024 59.795 22.778l-.009 4.334c-8.924-10.893-38.046-18.879-60.479-23.445-29.575-5.83-66.896-9.595-105.408-9.522-40.639.077-78.48 3.977-107.623 9.74-23.385 4.703-54.571 14.045-58.465 23.26v-4.513c2.138-6.379 25.361-15.911 57.938-22.52 29.362-5.803 67.273-9.637 108.15-9.712Zm.016-14.254c38.726-.071 76.299 3.722 106.101 9.6 30.753 6.233 52.395 14.024 59.795 22.778l-.008 4.334c-8.924-10.89-38.047-18.877-60.479-23.441-29.576-5.834-66.897-9.598-105.409-9.523-40.638.074-78.295 3.978-107.442 9.738-22.566 4.335-55.027 14.048-58.647 23.263v-4.516c2.138-6.309 25.831-16.183 57.94-22.52 29.362-5.803 67.273-9.634 108.149-9.712ZM377.723 237.508c61.144-.313 114.477 8.741 138.877 21.519l8.9 15.742c-21.208-11.685-78.745-23.835-147.688-22.018-56.174.353-116.197 6.322-146.312 22.749l10.626-18.167c24.715-13.104 83.002-19.752 135.599-19.822"/><path fill="#FDE100" fill-rule="evenodd" stroke="#000" stroke-linecap="round" stroke-linejoin="round" stroke-miterlimit="10" stroke-width="1.08199" d="M378.423 250.643c34.852-.092 68.528 1.883 95.311 6.74 24.942 4.665 48.728 11.668 52.129 15.434l2.637 4.683c-8.272-5.428-28.856-11.473-55.285-16.51-26.542-5.014-60.195-6.675-94.853-6.583-39.338-.136-69.9 1.952-96.129 6.548-27.739 5.217-46.985 12.669-51.733 16.21l2.584-4.951c9.225-4.73 23.863-10.431 48.46-14.882 27.124-4.98 58.011-6.474 96.881-6.688h-.001Zm-.015-14.14c33.353-.088 66.284 1.78 91.954 6.418 20.246 3.961 40.268 10.145 47.6 15.648l3.856 6.159c-6.556-7.324-31.235-14.265-53.022-18.153-25.472-4.416-57.036-6.163-90.389-6.443-35.003.099-67.351 2.254-92.452 6.847-23.947 4.58-39.4 10.003-45.939 14.238l3.391-5.145c9.024-4.774 23.601-9.159 41.96-12.744 25.287-4.627 57.834-6.726 93.042-6.825ZM460.478 417.696c-30.213-5.677-60.479-6.501-81.62-6.251-101.835 1.202-134.732 21.046-138.747 27.055l-7.611-12.487c25.927-18.915 81.381-29.522 146.909-28.437 34.027.561 63.39 2.835 88.091 7.65l-7.024 12.473"/><path fill="#FDE100" fill-rule="evenodd" stroke="#000" stroke-linecap="round" stroke-linejoin="round" stroke-miterlimit="10" stroke-width="1.03864" d="M377.948 409.772c28.374.423 56.225 1.595 83.107 6.606l-1.947 3.435c-24.967-4.607-51.584-6.37-81.064-6.226-37.644-.295-75.718 3.22-108.866 12.729-10.459 2.909-27.774 9.63-29.54 15.184l-1.937-3.192c.559-3.283 11.023-10.096 30.587-15.59 37.968-10.868 73.483-12.7 109.66-12.948v.003Zm1.288-14.272c29.397.549 59.756 1.908 89.264 7.751l-2.027 3.575c-26.647-5.287-52.106-7.05-87.064-7.587-37.764.068-77.822 2.76-114.243 13.343-11.759 3.424-32.053 10.826-32.729 16.686l-1.937-3.429c.441-5.323 18.009-12.266 33.816-16.862 36.702-10.666 76.864-13.408 114.921-13.477Z"/><path fill="#FDE100" fill-rule="evenodd" stroke="#000" stroke-linecap="round" stroke-linejoin="round" stroke-miterlimit="10" stroke-width="1.08199" d="M523.805 427.556 511.589 446.5l-35.099-31.155-91.055-61.221-102.643-56.258-53.292-18.218 11.357-21.046 3.857-2.102 33.111 8.273 109.266 56.258 62.91 39.711 52.977 38.057 21.522 24.819Z"/><path fill="#FDE100" fill-rule="evenodd" stroke="#000" stroke-linecap="round" stroke-linejoin="round" stroke-miterlimit="10" stroke-width="1.08199" d="M227.563 279.864c9.342-6.351 77.997 24.308 149.833 67.73 71.646 43.547 140.107 92.755 133.927 101.964l-2.033 3.205-.932.737c.199-.143 1.23-1.406-.101-4.82-3.053-10.069-51.616-48.916-132.193-97.687-78.552-46.956-144.018-75.256-150.564-67.166l2.063-3.963h-.001ZM526.12 427.365c5.907-11.697-57.772-59.785-136.723-106.606-80.767-45.889-138.977-72.9-149.61-64.846l-2.362 4.311c-.021.237.086-.294.585-.68 1.934-1.691 5.138-1.577 6.584-1.603 18.308.275 70.597 24.397 143.961 66.559 32.145 18.768 135.794 85.406 135.399 104.146.028 1.611.133 1.943-.471 2.74l2.636-4.02v-.003Z"/><path fill="#FFF" fill-rule="evenodd" stroke="#000" stroke-miterlimit="8" stroke-width="1.26593" d="M280.523 367.059c0 27.001 10.998 51.422 28.815 69.269 17.852 17.886 42.111 29.172 69.012 29.172 27.039 0 51.577-11.039 69.353-28.856 17.776-17.815 28.792-42.403 28.797-69.499h-.003V235.734L280.5 235.5l.02 131.559h.004Z"/><path fill="red" fill-rule="evenodd" stroke="#000" stroke-miterlimit="8" stroke-width="0.958005" d="M283.503 367.538v.075c0 25.75 10.687 49.2 27.833 66.225 17.179 17.057 40.839 27.662 66.722 27.662 26.018 0 49.629-10.528 66.735-27.52 17.103-16.991 27.704-40.443 27.707-66.283h-.003V240.531l-188.881-.031-.116 127.037m151.022-88.964.007 80.926-.069 8.561h.001c0 2.252-.136 4.82-.399 7.007-1.535 12.794-7.433 23.947-16.169 32.622-10.226 10.156-24.342 16.455-39.898 16.455-15.475 0-29.267-6.518-39.537-16.718-10.535-10.461-16.641-24.806-16.641-39.638l-.022-89.422 112.724.203.004.003Z"/><path fill="#FF0" fill-rule="evenodd" d="M296 272.918c.211-8.803 6.349-10.887 6.393-10.918.044-.029 6.629 2.245 6.607 11l-13-.082"/><path fill="#FF0" fill-rule="evenodd" stroke="#000" stroke-miterlimit="8" stroke-width="0.944147" d="m290.619 262.562-1.119 9.924 6.795.014c.065-8.211 6.521-9.576 6.677-9.546.146-.008 6.546 1.815 6.716 9.546h6.812l-1.23-10-24.651.059v.003ZM288.603 272.5h28.794c.607 0 1.103.676 1.103 1.503 0 .824-.496 1.497-1.103 1.497h-28.794c-.607 0-1.103-.673-1.103-1.497 0-.827.496-1.503 1.103-1.503Z"/><path fill="#FF0" fill-rule="evenodd" stroke="#000" stroke-miterlimit="8" stroke-width="0.944147" d="M299.5 272.5c.028-5.458 3.417-7.003 3.434-7 .001 0 3.538 1.593 3.566 7h-7M289.532 257.5h26.936c.567 0 1.032.678 1.032 1.5 0 .824-.465 1.5-1.032 1.5h-26.936c-.567 0-1.032-.672-1.032-1.5 0-.822.465-1.5 1.032-1.5ZM290.461 260.5h25.078c.528 0 .961.45.961.999 0 .552-.433 1.001-.961 1.001h-25.078c-.528 0-.961-.449-.961-1.001 0-.549.433-.999.961-.999ZM298.503 242.528l1.994.003v1.376h1.455V242.5l2.044.006v1.402h1.459v-1.407h2.045l-.003 3.177c0 .499-.413.822-.892.822h-7.172c-.482 0-.927-.375-.928-.832l-.005-3.139h.001ZM306.05 247.526l.45 9.974-7-.024.463-9.976 6.087.026M297.277 252.5l.223 4.997-7 .003.198-5h6.581-.002ZM315.278 252.5l.223 4.997-7 .003.198-5h6.58-.001ZM289.503 247.534l1.992.006v1.722h1.458V247.5l2.043.008v1.755h1.46v-1.762l2.044.004-.003 3.971c0 .62-.413 1.024-.891 1.024h-7.172c-.481 0-.927-.465-.929-1.038l-.005-3.926h.002ZM307.503 247.534l1.993.006v1.722h1.458V247.5l2.042.008v1.755h1.461v-1.762l2.044.004-.003 3.971c0 .62-.413 1.024-.891 1.024h-7.172c-.481 0-.927-.465-.929-1.038l-.005-3.926h.002Z"/><path fill-rule="evenodd" d="M302.001 249.942c-.031-1.249 1.011-1.263.999 0V253h-.999v-3.058M293 253.837c-.004-1.105 1.013-1.127 1 0V256h-1v-2.163M310.001 253.837c-.007-1.105 2.026-1.127 2 0V256h-1.999v-2.163"/><path fill="#FF0" fill-rule="evenodd" d="M296 349.915c.211-9.603 6.349-11.876 6.393-11.91.044-.032 6.629 2.448 6.607 12l-13-.09"/><path fill="#FF0" fill-rule="evenodd" stroke="#000" stroke-miterlimit="8" stroke-width="0.944147" d="m290.619 339.566-1.119 9.924 6.795.014c.065-8.211 6.521-9.576 6.677-9.546.146-.008 6.546 1.815 6.716 9.546h6.812l-1.23-10-24.651.059v.004ZM288.603 349.505h28.794c.607 0 1.103.676 1.103 1.503 0 .824-.496 1.497-1.103 1.497h-28.794c-.607 0-1.103-.673-1.103-1.497 0-.827.496-1.503 1.103-1.503Z"/><path fill="#FF0" fill-rule="evenodd" stroke="#000" stroke-miterlimit="8" stroke-width="0.944147" d="M299.5 349.504c.028-5.458 3.417-7.003 3.434-7 .001 0 3.538 1.593 3.566 7h-7M289.532 334.505h26.936c.567 0 1.032.678 1.032 1.501 0 .824-.465 1.5-1.032 1.5h-26.936c-.567 0-1.032-.672-1.032-1.5 0-.823.465-1.501 1.032-1.501Z"/><path fill="#FF0" fill-rule="evenodd" stroke="#000" stroke-miterlimit="8" stroke-width="0.944147" d="M290.461 337.504h25.078c.528 0 .961.449.961.999 0 .551-.433 1.001-.961 1.001h-25.078c-.528 0-.961-.45-.961-1.001 0-.55.433-.999.961-.999ZM298.503 319.532l1.994.003v1.376h1.455v-1.407l2.044.006v1.402h1.459v-1.407h2.045l-.003 3.177c0 .499-.413.822-.892.822h-7.172c-.482 0-.927-.375-.928-.831l-.005-3.14h.001ZM306.05 323.533l.45 10.972-7-.028.463-10.973 6.087.029M297.277 328.504l.223 5.997-7 .004.198-6h6.581-.002ZM315.278 328.504l.223 5.997-7 .004.198-6h6.58-.001ZM289.503 324.531l1.992.005v1.378h1.458v-1.41l2.043.006v1.404h1.46v-1.409l2.044.003-.003 3.177c0 .496-.413.819-.891.819h-7.172c-.481 0-.927-.372-.929-.83l-.005-3.141h.002ZM307.503 324.531l1.993.005v1.378h1.458v-1.41l2.042.006v1.404h1.461v-1.409l2.044.003-.003 3.177c0 .496-.413.819-.891.819h-7.172c-.481 0-.927-.372-.929-.83l-.005-3.141h.002Z"/><path fill-rule="evenodd" d="M302.001 326.71c-.031-.936 1.011-.947.999 0v2.294h-.999v-2.293M293 330.841c-.004-1.104 1.013-1.126 1 0v2.164h-1v-2.164M310.001 330.841c-.007-1.104 2.026-1.126 2 0v2.164h-1.999v-2.164"/><path fill="#FF0" fill-rule="evenodd" d="M325.482 429.682c-6.334-6.605-3.297-12.737-3.287-12.793.011-.055 6.596-3.332 13.036 3.096l-9.749 9.697"/><path fill="#FF0" fill-rule="evenodd" stroke="#000" stroke-miterlimit="8" stroke-width="0.944147" d="m313.61 425.787 6.665 8.21 4.845-4.859c-6.126-6.176-2.559-11.821-2.425-11.911.098-.11 6.022-3.335 11.955 2.314l4.847-4.881-8.393-6.584-17.495 17.709.002.002ZM319.98 434.353l19.786-19.926c.417-.42 1.173-.352 1.68.152.506.502.578 1.256.161 1.675l-19.786 19.927c-.417.42-1.171.353-1.677-.149-.507-.504-.581-1.259-.164-1.679Z"/><path fill="#FF0" fill-rule="evenodd" stroke="#000" stroke-miterlimit="8" stroke-width="0.944147" d="M327.137 427.075c-3.874-3.89-2.356-7.623-2.341-7.634.001-.001 3.872-1.626 7.752 2.184l-5.411 5.45M309.805 423.41l18.968-19.102c.4-.402 1.101-.36 1.556.091.455.452.501 1.152.101 1.555l-18.968 19.102c-.399.402-1.098.363-1.555-.091-.454-.451-.501-1.152-.102-1.555ZM311.872 424.668l18.142-18.27c.382-.385 1.068-.331 1.523.121.456.453.516 1.138.134 1.523l-18.143 18.271c-.382.385-1.067.33-1.523-.123-.456-.452-.515-1.137-.133-1.522ZM305.281 406.401l1.434-1.44 1.025 1.017 1.045-1.052-1.047-1.04 1.472-1.473 1.043 1.036 1.048-1.056-1.047-1.04 1.468-1.479 2.363 2.351c.372.369.316.907-.028 1.253l-5.151 5.187c-.346.349-.944.393-1.285.056l-2.341-2.317.001-.001ZM313.838 404.109l7.91 7.207-5.043 5.041-7.255-7.869 4.388-4.379M311.225 413.774l4.242 3.906-4.815 4.853-3.955-4.199 4.529-4.561-.001.001ZM323.612 401.298l4.242 3.906-4.814 4.853-3.956-4.199 4.529-4.561-.001.001ZM302.844 416.288l1.404-1.407 1.025 1.018 1.025-1.032-1.05-1.042 1.44-1.441 1.046 1.038 1.026-1.034-1.049-1.042 1.439-1.444 2.363 2.351c.369.367.319.898-.016 1.236l-5.041 5.076c-.338.341-.929.382-1.271.044l-2.342-2.318.001-.001ZM315.231 403.812l1.404-1.407 1.025 1.018 1.025-1.032-1.05-1.042 1.441-1.441 1.045 1.039 1.027-1.034-1.05-1.043 1.439-1.444 2.363 2.351c.369.367.319.898-.016 1.236l-5.041 5.077c-.337.34-.928.381-1.271.043l-2.342-2.318.001-.001Z"/><path fill-rule="evenodd" d="M313.563 409.184c-.768-.701.278-1.771 1.011-1.019l1.807 1.794-1.011 1.019-1.806-1.794M309.963 418.055c-.717-.704.25-1.706.964-.971l1.396 1.386-.964.971-1.396-1.386M322.387 405.542c-.716-.704.25-1.706.965-.972l1.396 1.386-.965.971-1.396-1.386"/><path fill="#FF0" fill-rule="evenodd" d="M371.004 272.918c.228-8.803 6.837-10.887 6.885-10.918.047-.029 7.139 2.245 7.115 11l-14-.082"/><path fill="#FF0" fill-rule="evenodd" stroke="#000" stroke-miterlimit="8" stroke-width="0.944147" d="m366.623 262.562-1.119 9.924 6.795.014c.065-8.211 6.521-9.576 6.677-9.546.146-.008 6.546 1.815 6.716 9.546h6.812l-1.23-10-24.65.059v.003ZM364.572 272.5h27.865c.587 0 1.067.676 1.067 1.503 0 .824-.48 1.497-1.067 1.497h-27.865c-.588 0-1.068-.673-1.068-1.497 0-.827.48-1.503 1.068-1.503Z"/><path fill="#FF0" fill-rule="evenodd" stroke="#000" stroke-miterlimit="8" stroke-width="0.944147" d="M374.504 272.5c.032-5.458 3.905-7.003 3.925-7 .002 0 4.043 1.593 4.075 7h-7.999M365.537 257.5h26.935c.567 0 1.032.678 1.032 1.5 0 .824-.465 1.5-1.032 1.5h-26.935c-.568 0-1.033-.672-1.033-1.5 0-.822.465-1.5 1.033-1.5ZM365.501 260.5h26.007a1 1 0 0 1 0 2h-26.007a1.001 1.001 0 0 1 0-2ZM374.507 242.528l1.994.003v1.376h1.456V242.5l2.043.006v1.402h1.46v-1.407h2.044l-.003 3.177c0 .499-.413.822-.892.822h-7.172c-.482 0-.926-.375-.928-.832l-.005-3.139h.002ZM382.054 247.526l.45 9.974-7-.024.464-9.976 6.086.026M373.281 252.5l.223 4.997-7 .003.198-5h6.581-.002ZM390.314 252.5l.191 4.997-6 .003.169-5h5.641-.002ZM365.507 247.534l1.992.006v1.722h1.458V247.5l2.043.008v1.755h1.461v-1.762l2.043.004-.003 3.971c0 .62-.413 1.024-.891 1.024h-7.172c-.48 0-.927-.465-.929-1.038l-.005-3.926h.002ZM382.508 247.534l1.992.006v1.722h1.458V247.5l2.043.008v1.755h1.46v-1.762l2.044.004-.003 3.971c0 .62-.413 1.024-.891 1.024h-7.172c-.48 0-.927-.465-.929-1.038l-.005-3.926h.002Z"/><path fill-rule="evenodd" d="M377.007 249.942c-.061-1.249 2.023-1.263 1.999 0V253h-1.999v-3.058M369.003 253.837c-.004-1.105 1.013-1.127 1 0V256h-.999v-2.163M386.008 253.837c-.008-1.105 2.025-1.127 1.999 0V256h-1.999v-2.163"/><path fill="#FF0" fill-rule="evenodd" d="M459.992 272.918c-.211-8.803-6.349-10.887-6.393-10.918-.044-.03-6.629 2.245-6.607 11l13-.082"/><path fill="#FF0" fill-rule="evenodd" stroke="#000" stroke-miterlimit="8" stroke-width="0.944147" d="m466.373 262.562 1.119 9.924-6.795.014c-.065-8.21-6.521-9.577-6.677-9.546-.146-.008-6.546 1.815-6.716 9.546h-6.812l1.23-10 24.65.06v.002ZM468.388 272.5h-28.794c-.607 0-1.103.676-1.103 1.502 0 .825.496 1.498 1.103 1.498h28.794c.607 0 1.103-.673 1.103-1.498 0-.826-.496-1.502-1.103-1.502Z"/><path fill="#FF0" fill-rule="evenodd" stroke="#000" stroke-miterlimit="8" stroke-width="0.944147" d="M457.492 272.5c-.028-5.458-3.416-7.003-3.434-7-.001 0-3.538 1.593-3.566 7h7M467.46 257.5h-26.936c-.567 0-1.033.678-1.033 1.5 0 .824.466 1.5 1.033 1.5h26.935c.568 0 1.033-.672 1.033-1.5 0-.822-.465-1.5-1.033-1.5ZM466.531 260.5h-25.078c-.528 0-.961.45-.961 1s.433 1 .96 1h25.079c.528 0 .96-.45.96-1s-.432-1-.96-1ZM458.49 242.527l-1.995.004v1.376h-1.456V242.5l-2.043.006v1.402h-1.46V242.5h-2.044l.003 3.177c0 .499.413.822.892.822h7.172c.482 0 .926-.375.928-.832l.005-3.14h-.002ZM450.942 247.526l-.45 9.974 7-.024-.464-9.976-6.086.026M459.713 252.5l-.223 4.997 7 .003-.197-5h-6.581.002ZM441.714 252.5l-.223 4.997 7 .003-.197-5h-6.581.001ZM467.488 247.534l-1.992.006v1.722h-1.458V247.5l-2.043.008v1.755h-1.46v-1.762l-2.044.004.003 3.971c0 .62.413 1.024.89 1.024h7.173c.48 0 .927-.465.929-1.038l.005-3.926h-.002ZM449.49 247.534l-1.994.006v1.722h-1.457V247.5l-2.043.008v1.755h-1.46v-1.762l-2.044.004.003 3.971c0 .62.413 1.024.89 1.024h7.173c.48 0 .927-.465.929-1.038l.005-3.926h-.002Z"/><path fill-rule="evenodd" d="M453.994 249.942c.03-1.249-1.012-1.263-1 0V253h1v-3.058M462.993 253.837c.004-1.105-1.013-1.127-1 0V256h1v-2.163M444.994 253.837c.004-1.105-1.013-1.127-1 0V256h1v-2.163"/><path fill="#FF0" fill-rule="evenodd" d="M459.992 349.915c-.211-9.603-6.349-11.876-6.393-11.91-.044-.032-6.629 2.448-6.607 12l13-.09"/><path fill="#FF0" fill-rule="evenodd" stroke="#000" stroke-miterlimit="8" stroke-width="0.944147" d="m466.373 339.566 1.119 9.924-6.795.014c-.065-8.21-6.521-9.577-6.677-9.546-.146-.008-6.546 1.815-6.716 9.546h-6.812l1.23-10 24.65.06v.002ZM468.388 349.505h-28.794c-.607 0-1.103.676-1.103 1.503 0 .824.496 1.497 1.103 1.497h28.794c.607 0 1.103-.673 1.103-1.497 0-.827-.496-1.503-1.103-1.503Z"/><path fill="#FF0" fill-rule="evenodd" stroke="#000" stroke-miterlimit="8" stroke-width="0.944147" d="M457.492 349.504c-.028-5.458-3.416-7.003-3.434-7-.001 0-3.538 1.593-3.566 7h7M467.46 334.505h-26.936c-.567 0-1.033.678-1.033 1.5 0 .825.466 1.5 1.033 1.5h26.935c.568 0 1.033-.672 1.033-1.5 0-.822-.465-1.5-1.033-1.5Z"/><path fill="#FF0" fill-rule="evenodd" stroke="#000" stroke-miterlimit="8" stroke-width="0.944147" d="M466.531 337.504h-25.078c-.528 0-.961.45-.961.999 0 .551.433 1 .96 1h25.079c.528 0 .96-.449.96-1 0-.55-.432-1-.96-1ZM458.49 319.532l-1.995.003v1.376h-1.456v-1.407l-2.043.006v1.402h-1.46v-1.407h-2.044l.003 3.177c0 .499.413.822.892.822h7.172c.482 0 .926-.375.928-.831l.005-3.14h-.002ZM450.942 323.533l-.45 10.971 7-.027-.464-10.973-6.086.029M459.713 328.504l-.223 5.997 7 .004-.197-6h-6.581.002ZM441.714 328.504l-.223 5.997 7 .004-.197-6h-6.581.001Z"/><path fill="#FF0" fill-rule="evenodd" stroke="#000" stroke-miterlimit="8" stroke-width="0.944147" d="m467.488 324.531-1.992.005v1.378h-1.458v-1.41l-2.043.006v1.404h-1.46v-1.41l-2.044.004.003 3.177c0 .496.413.82.89.82h7.173c.48 0 .927-.373.929-.831l.005-3.141h-.002ZM449.49 324.531l-1.994.005v1.378h-1.457v-1.41l-2.043.006v1.404h-1.46v-1.41l-2.044.004.003 3.177c0 .496.413.82.89.82h7.173c.48 0 .927-.373.929-.831l.005-3.141h-.002Z"/><path fill-rule="evenodd" d="M453.994 326.71c.03-.936-1.012-.947-1 0v2.294h1v-2.293M462.993 330.841c.004-1.104-1.013-1.126-1 0v2.164h1v-2.164M444.994 330.841c.004-1.104-1.013-1.126-1 0v2.164h1v-2.164"/><path fill="#FF0" fill-rule="evenodd" d="M430.342 429.678c6.335-6.605 3.297-12.737 3.287-12.793-.01-.055-6.595-3.332-13.036 3.096l9.75 9.697"/><path fill="#FF0" fill-rule="evenodd" stroke="#000" stroke-miterlimit="8" stroke-width="0.944147" d="m442.215 425.783-6.665 8.21-4.845-4.859c6.126-6.176 2.559-11.822 2.425-11.91-.098-.112-6.022-3.336-11.955 2.312l-4.847-4.88 8.393-6.584 17.495 17.708-.002.003ZM435.845 434.35l-19.786-19.927c-.417-.42-1.173-.35-1.68.153-.506.502-.578 1.255-.16 1.675l19.786 19.927c.417.42 1.17.353 1.676-.15.507-.503.581-1.258.164-1.678Z"/><path fill="#FF0" fill-rule="evenodd" stroke="#000" stroke-miterlimit="8" stroke-width="0.944147" d="M428.688 427.07c3.873-3.89 2.356-7.622 2.34-7.633 0-.002-3.871-1.626-7.752 2.184l5.411 5.45M446.019 423.406l-18.968-19.102c-.4-.403-1.102-.36-1.556.09-.455.452-.5 1.153-.101 1.555l18.967 19.102c.4.403 1.099.364 1.556-.09.454-.451.501-1.153.102-1.555ZM443.952 424.664l-18.143-18.27c-.382-.386-1.067-.331-1.522.12-.457.454-.516 1.139-.134 1.524l18.143 18.27c.382.385 1.067.33 1.523-.122.455-.452.515-1.137.133-1.522ZM450.543 406.396l-1.435-1.44-1.024 1.017-1.046-1.052 1.048-1.04-1.472-1.473-1.044 1.036-1.048-1.056 1.048-1.04-1.469-1.479-2.363 2.351c-.371.37-.315.907.029 1.253l5.15 5.187c.346.349.945.393 1.286.056l2.34-2.317v-.001ZM441.985 404.104l-7.91 7.208 5.043 5.04 7.255-7.868-4.388-4.38M444.599 413.769l-4.243 3.906 4.815 4.853 3.955-4.2-4.528-4.56v.001ZM432.213 401.294l-4.243 3.906 4.815 4.853 3.955-4.2-4.528-4.56v.001ZM452.98 416.282l-1.405-1.407-1.025 1.018-1.025-1.031 1.05-1.043-1.44-1.44-1.046 1.037-1.026-1.033 1.049-1.043-1.439-1.444-2.363 2.351c-.369.367-.32.898.016 1.236l5.04 5.077c.339.34.93.381 1.272.043l2.342-2.318-.001-.001ZM440.593 403.807l-1.404-1.407-1.025 1.018-1.025-1.031 1.05-1.043-1.44-1.44-1.046 1.038-1.026-1.034 1.049-1.042-1.439-1.445-2.363 2.351c-.37.367-.32.898.016 1.236l5.04 5.077c.339.34.93.381 1.272.043l2.342-2.318-.001-.001Z"/><path fill-rule="evenodd" d="M442.26 409.18c.769-.702-.277-1.772-1.01-1.02l-1.807 1.795 1.01 1.018 1.807-1.793M445.86 418.05c.717-.704-.25-1.707-.964-.972l-1.396 1.386.964.971 1.396-1.386M433.437 405.537c.716-.704-.25-1.706-.965-.971l-1.396 1.386.965.971 1.395-1.386"/><path fill="#039" fill-rule="evenodd" d="M366.001 352.717v.008c0 3.64 1.414 6.956 3.681 9.362 2.273 2.414 5.402 3.913 8.826 3.913 3.441 0 6.564-1.489 8.827-3.892 2.26-2.401 3.665-5.714 3.665-9.368v-17.72l-24.955-.02-.045 17.716"/><path fill="#FFF" fill-rule="evenodd" d="M374 341.5a2.5 2.5 0 1 1-5 0 2.5 2.5 0 0 1 5 0ZM388 341.5a2.5 2.5 0 1 1-5 0 2.5 2.5 0 0 1 5 0ZM381 348.5a2.5 2.5 0 1 1-5 0 2.5 2.5 0 0 1 5 0ZM374 355c0 1.105-1.119 2-2.5 2s-2.5-.895-2.5-2 1.119-2 2.5-2 2.5.895 2.5 2ZM388 355c0 1.105-1.119 2-2.5 2s-2.5-.895-2.5-2 1.119-2 2.5-2 2.5.895 2.5 2Z"/><path fill="#039" fill-rule="evenodd" d="M366.001 309.715v.008c0 3.64 1.414 6.956 3.681 9.362 2.273 2.414 5.402 3.913 8.826 3.913 3.441 0 6.564-1.489 8.827-3.893 2.26-2.4 3.665-5.713 3.665-9.368v-17.719l-24.955-.02-.045 17.716"/><path fill="#FFF" fill-rule="evenodd" d="M374 298.498a2.5 2.5 0 1 1-5 0 2.5 2.5 0 0 1 5 0ZM388 298.498a2.5 2.5 0 1 1-5 0 2.5 2.5 0 0 1 5 0ZM381 304.998c0 1.105-1.119 2-2.5 2s-2.5-.895-2.5-2 1.119-2 2.5-2 2.5.895 2.5 2ZM374 311.498a2.5 2.5 0 1 1-5 0 2.5 2.5 0 0 1 5 0ZM388 311.498a2.5 2.5 0 1 1-5 0 2.5 2.5 0 0 1 5 0Z"/><path fill="#039" fill-rule="evenodd" d="M330.999 352.717v.008c0 3.64 1.414 6.956 3.682 9.362 2.272 2.414 5.402 3.913 8.825 3.913 3.441 0 6.565-1.489 8.827-3.892 2.26-2.401 3.665-5.714 3.665-9.368v-17.72l-24.954-.02-.046 17.716"/><path fill="#FFF" fill-rule="evenodd" d="M339.998 341.5a2.5 2.5 0 1 1-5 0 2.5 2.5 0 0 1 5 0ZM352.998 341.5a2.5 2.5 0 1 1-5 0 2.5 2.5 0 0 1 5 0ZM345.999 348.5c0 1.381-.896 2.5-2 2.5-1.105 0-2.001-1.119-2.001-2.5s.896-2.5 2.001-2.5c1.104 0 2 1.119 2 2.5ZM339.998 355c0 1.105-1.119 2-2.5 2s-2.5-.895-2.5-2 1.119-2 2.5-2 2.5.895 2.5 2ZM352.998 355c0 1.105-1.119 2-2.5 2s-2.5-.895-2.5-2 1.119-2 2.5-2 2.5.895 2.5 2Z"/><path fill="#039" fill-rule="evenodd" d="M400.003 352.717v.008c0 3.64 1.413 6.956 3.681 9.362 2.273 2.414 5.402 3.913 8.826 3.913 3.441 0 6.564-1.489 8.826-3.892 2.261-2.401 3.666-5.714 3.666-9.368v-17.72l-24.955-.02-.045 17.716"/><path fill="#FFF" fill-rule="evenodd" d="M408.002 341.5a2.5 2.5 0 1 1-5 0 2.5 2.5 0 0 1 5 0ZM422.002 341.5a2.5 2.5 0 1 1-5 0 2.5 2.5 0 0 1 5 0ZM415.002 348.5a2.5 2.5 0 1 1-5 0 2.5 2.5 0 0 1 5 0ZM408.002 355c0 1.105-1.119 2-2.5 2s-2.5-.895-2.5-2 1.119-2 2.5-2 2.5.895 2.5 2ZM422.002 355c0 1.105-1.119 2-2.5 2s-2.5-.895-2.5-2 1.119-2 2.5-2 2.5.895 2.5 2Z"/><path fill="#039" fill-rule="evenodd" d="M366.001 395.291v.008c0 3.758 1.414 7.181 3.681 9.665 2.273 2.491 5.402 4.038 8.826 4.038 3.441 0 6.564-1.537 8.827-4.017 2.26-2.478 3.665-5.899 3.665-9.671v-18.291l-24.955-.021L366 395.29"/><path fill="#FFF" fill-rule="evenodd" d="M374 384.502a2.5 2.5 0 1 1-5 0 2.5 2.5 0 0 1 5 0ZM388 384.502a2.5 2.5 0 1 1-5.001.001 2.5 2.5 0 0 1 5.001-.001ZM381 390.502a2.5 2.5 0 1 1-5 0 2.5 2.5 0 0 1 5 0ZM374 397.502a2.5 2.5 0 1 1-5 0 2.5 2.5 0 0 1 5 0ZM388 397.502a2.5 2.5 0 1 1-5 0 2.5 2.5 0 0 1 5 0Z"/></g></svg>