<svg xmlns="http://www.w3.org/2000/svg" width="600" height="300"><defs><path id="a" d="m0-360 69.421 215.845 212.038-80.301L155.99-35.603l194.985 115.71-225.881 19.651 31.105 224.59L0 160l-156.198 164.349 31.105-224.59-225.881-19.651 194.986-115.711-125.471-188.853 212.038 80.301z"/></defs><clipPath id="b"><path d="M150 75h150v75zm0 0v75H0zm0 0H0V0zm0 0V0h150z"/></clipPath><path fill="#c8102e" d="M0 0h600v300H0z" style="fill:#c8102f;fill-opacity:1"/><svg width="300" height="150"><path fill="#012169" d="M0 0h300v150H0z" style="fill:#012169;fill-opacity:1"/><path stroke="#fff" stroke-width="30" d="m0 0 300 150m0-150L0 150"/><path stroke="#c8102e" stroke-width="20" d="m0 0 300 150m0-150L0 150" clip-path="url(#b)" style="fill:#c8102f;fill-opacity:1"/><path stroke="#fff" stroke-width="50" d="M150 0v150M0 75h300"/><path stroke="#c8102e" stroke-width="30" d="M150 0v150M0 75h300" style="fill:#c8102f;fill-opacity:1"/></svg><g stroke="#806600" stroke-width=".505466"><path fill="#fdd502" fill-rule="evenodd" d="m253.083 118.575-2.414-24.51s.733 6.409 0 0c-.012-7.984-1.114-10.584-1.114-10.584s.84 2.748 0 0c-1.366-5.57-.497-8.363.01-9.186 3.529-4.828 7.231-3.811 7.231-3.811s-.936-.133 0 0c-3.528 5.384-1.814 8.57-1.005 10.42.743 5.2-.295 13.532-.295 13.532s-1.485 9.284 0 0c1.486-9.284.224-10.764.666-13.794 1.427-4.213 5.223-5.73 7.536-6.426-1.363 3.9-.227 7.753-.358 10.51-.263 4.465-3.202 10.453-3.202 10.453l-7.055 23.396z" transform="matrix(1.51989 0 0 1.52374 65.507 -31.878)"/><g fill="none"><path d="M256.618 70.531c-3.808.854-4.595 6.237-4.595 6.237s.13 4.135 1.247 8.206c.262 3.282-.263 12.473-.263 12.473l.263 19.563" transform="matrix(1.51989 0 0 1.52374 65.507 -31.878)"/><path d="M263.38 74.404s-3.283 3.808-3.611 5.055c-.788 3.48-.656 5.252-.328 8.534-.722 4.465-2.298 9.913-2.298 9.913l-3.742 16.937" transform="matrix(1.51989 0 0 1.52374 65.507 -31.878)"/></g><path fill="#fdd502" fill-rule="evenodd" d="m253.083 118.575-2.414-24.51s.733 6.409 0 0c-.012-7.984-1.114-10.584-1.114-10.584s.84 2.748 0 0c-1.366-5.57-.497-8.363.01-9.186 3.529-4.828 7.231-3.811 7.231-3.811s-.936-.133 0 0c-3.528 5.384-1.814 8.57-1.005 10.42.743 5.2-.295 13.532-.295 13.532s-1.485 9.284 0 0c1.486-9.284.224-10.764.666-13.794 1.427-4.213 5.223-5.73 7.536-6.426-1.363 3.9-.227 7.753-.358 10.51-.263 4.465-3.202 10.453-3.202 10.453l-7.055 23.396z" transform="scale(1.51989 1.52374) rotate(-22.5 221.488 .597)"/><g fill="none"><path d="M256.618 70.531c-3.808.854-4.595 6.237-4.595 6.237s.13 4.135 1.247 8.206c.262 3.282-.263 12.473-.263 12.473l.263 19.563" transform="scale(1.51989 1.52374) rotate(-22.5 221.488 .597)"/><path d="M263.38 74.404s-3.283 3.808-3.611 5.055c-.788 3.48-.656 5.252-.328 8.534-.722 4.465-2.298 9.913-2.298 9.913l-3.742 16.937" transform="scale(1.51989 1.52374) rotate(-22.5 221.488 .597)"/></g><path fill="#fdd502" fill-rule="evenodd" d="m253.083 118.575-2.414-24.51s.733 6.409 0 0c-.012-7.984-1.114-10.584-1.114-10.584s.84 2.748 0 0c-1.366-5.57-.497-8.363.01-9.186 3.529-4.828 7.231-3.811 7.231-3.811s-.936-.133 0 0c-3.528 5.384-1.814 8.57-1.005 10.42.743 5.2-.295 13.532-.295 13.532s-1.485 9.284 0 0c1.486-9.284.224-10.764.666-13.794 1.427-4.213 5.223-5.73 7.536-6.426-1.363 3.9-.227 7.753-.358 10.51-.263 4.465-3.202 10.453-3.202 10.453l-7.055 23.396z" transform="scale(1.51989 1.52374) rotate(-45 249.13 56.652)"/><g fill="none"><path d="M256.618 70.531c-3.808.854-4.595 6.237-4.595 6.237s.13 4.135 1.247 8.206c.262 3.282-.263 12.473-.263 12.473l.263 19.563" transform="scale(1.51989 1.52374) rotate(-45 249.13 56.652)"/><path d="M263.38 74.404s-3.283 3.808-3.611 5.055c-.788 3.48-.656 5.252-.328 8.534-.722 4.465-2.298 9.913-2.298 9.913l-3.742 16.937" transform="scale(1.51989 1.52374) rotate(-45 249.13 56.652)"/></g><path fill="#fdd502" fill-rule="evenodd" d="m253.083 118.575-2.414-24.51s.733 6.409 0 0c-.012-7.984-1.114-10.584-1.114-10.584s.84 2.748 0 0c-1.366-5.57-.497-8.363.01-9.186 3.529-4.828 7.231-3.811 7.231-3.811s-.936-.133 0 0c-3.528 5.384-1.814 8.57-1.005 10.42.743 5.2-.295 13.532-.295 13.532s-1.485 9.284 0 0c1.486-9.284.224-10.764.666-13.794 1.427-4.213 5.223-5.73 7.536-6.426-1.363 3.9-.227 7.753-.358 10.51-.263 4.465-3.202 10.453-3.202 10.453l-7.055 23.396z" transform="matrix(.58164 -1.40776 1.4042 .58311 135.373 436.607)"/><g fill="none"><path d="M256.618 70.531c-3.808.854-4.595 6.237-4.595 6.237s.13 4.135 1.247 8.206c.262 3.282-.263 12.473-.263 12.473l.263 19.563" transform="matrix(.58164 -1.40776 1.4042 .58311 135.373 436.607)"/><path d="M263.38 74.404s-3.283 3.808-3.611 5.055c-.788 3.48-.656 5.252-.328 8.534-.722 4.465-2.298 9.913-2.298 9.913l-3.742 16.937" transform="matrix(.58164 -1.40776 1.4042 .58311 135.373 436.607)"/></g><path fill="#fdd502" fill-rule="evenodd" d="m253.083 118.575-2.414-24.51s.733 6.409 0 0c-.012-7.984-1.114-10.584-1.114-10.584s.84 2.748 0 0c-1.366-5.57-.497-8.363.01-9.186 3.529-4.828 7.231-3.811 7.231-3.811s-.936-.133 0 0c-3.528 5.384-1.814 8.57-1.005 10.42.743 5.2-.295 13.532-.295 13.532s-1.485 9.284 0 0c1.486-9.284.224-10.764.666-13.794 1.427-4.213 5.223-5.73 7.536-6.426-1.363 3.9-.227 7.753-.358 10.51-.263 4.465-3.202 10.453-3.202 10.453l-7.055 23.396z" transform="matrix(0 -1.52374 1.51989 0 268.393 535.58)"/><g fill="none"><path d="M256.618 70.531c-3.808.854-4.595 6.237-4.595 6.237s.13 4.135 1.247 8.206c.262 3.282-.263 12.473-.263 12.473l.263 19.563" transform="matrix(0 -1.52374 1.51989 0 268.393 535.58)"/><path d="M263.38 74.404s-3.283 3.808-3.611 5.055c-.788 3.48-.656 5.252-.328 8.534-.722 4.465-2.298 9.913-2.298 9.913l-3.742 16.937" transform="matrix(0 -1.52374 1.51989 0 268.393 535.58)"/></g><path fill="#fdd502" fill-rule="evenodd" d="m253.083 118.575-2.414-24.51s.733 6.409 0 0c-.012-7.984-1.114-10.584-1.114-10.584s.84 2.748 0 0c-1.366-5.57-.497-8.363.01-9.186 3.529-4.828 7.231-3.811 7.231-3.811s-.936-.133 0 0c-3.528 5.384-1.814 8.57-1.005 10.42.743 5.2-.295 13.532-.295 13.532s-1.485 9.284 0 0c1.486-9.284.224-10.764.666-13.794 1.427-4.213 5.223-5.73 7.536-6.426-1.363 3.9-.227 7.753-.358 10.51-.263 4.465-3.202 10.453-3.202 10.453l-7.055 23.396z" transform="scale(-1.51989 -1.52374) rotate(67.5 141.67 -400.235)"/><g fill="none"><path d="M256.618 70.531c-3.808.854-4.595 6.237-4.595 6.237s.13 4.135 1.247 8.206c.262 3.282-.263 12.473-.263 12.473l.263 19.563" transform="scale(-1.51989 -1.52374) rotate(67.5 141.67 -400.235)"/><path d="M263.38 74.404s-3.283 3.808-3.611 5.055c-.788 3.48-.656 5.252-.328 8.534-.722 4.465-2.298 9.913-2.298 9.913l-3.742 16.937" transform="scale(-1.51989 -1.52374) rotate(67.5 141.67 -400.235)"/></g><path fill="#fdd502" fill-rule="evenodd" d="m253.083 118.575-2.414-24.51s.733 6.409 0 0c-.012-7.984-1.114-10.584-1.114-10.584s.84 2.748 0 0c-1.366-5.57-.497-8.363.01-9.186 3.529-4.828 7.231-3.811 7.231-3.811s-.936-.133 0 0c-3.528 5.384-1.814 8.57-1.005 10.42.743 5.2-.295 13.532-.295 13.532s-1.485 9.284 0 0c1.486-9.284.224-10.764.666-13.794 1.427-4.213 5.223-5.73 7.536-6.426-1.363 3.9-.227 7.753-.358 10.51-.263 4.465-3.202 10.453-3.202 10.453l-7.055 23.396z" transform="scale(-1.51989 -1.52374) rotate(45 241.454 -651.929)"/><g fill="none"><path d="M256.618 70.531c-3.808.854-4.595 6.237-4.595 6.237s.13 4.135 1.247 8.206c.262 3.282-.263 12.473-.263 12.473l.263 19.563" transform="scale(-1.51989 -1.52374) rotate(45 241.454 -651.929)"/><path d="M263.38 74.404s-3.283 3.808-3.611 5.055c-.788 3.48-.656 5.252-.328 8.534-.722 4.465-2.298 9.913-2.298 9.913l-3.742 16.937" transform="scale(-1.51989 -1.52374) rotate(45 241.454 -651.929)"/></g><path fill="#fdd502" fill-rule="evenodd" d="m253.083 118.575-2.414-24.51s.733 6.409 0 0c-.012-7.984-1.114-10.584-1.114-10.584s.84 2.748 0 0c-1.366-5.57-.497-8.363.01-9.186 3.529-4.828 7.231-3.811 7.231-3.811s-.936-.133 0 0c-3.528 5.384-1.814 8.57-1.005 10.42.743 5.2-.295 13.532-.295 13.532s-1.485 9.284 0 0c1.486-9.284.224-10.764.666-13.794 1.427-4.213 5.223-5.73 7.536-6.426-1.363 3.9-.227 7.753-.358 10.51-.263 4.465-3.202 10.453-3.202 10.453l-7.055 23.396z" transform="matrix(-1.4042 -.58311 .58164 -1.40776 735.694 465.537)"/><g fill="none"><path d="M256.618 70.531c-3.808.854-4.595 6.237-4.595 6.237s.13 4.135 1.247 8.206c.262 3.282-.263 12.473-.263 12.473l.263 19.563" transform="matrix(-1.4042 -.58311 .58164 -1.40776 735.694 465.537)"/><path d="M263.38 74.404s-3.283 3.808-3.611 5.055c-.788 3.48-.656 5.252-.328 8.534-.722 4.465-2.298 9.913-2.298 9.913l-3.742 16.937" transform="matrix(-1.4042 -.58311 .58164 -1.40776 735.694 465.537)"/></g></g><g stroke="#806600" stroke-width=".505466"><path fill="#fdd502" fill-rule="evenodd" d="m253.083 118.575-2.414-24.51s.733 6.409 0 0c-.012-7.984-1.114-10.584-1.114-10.584s.84 2.748 0 0c-1.366-5.57-.497-8.363.01-9.186 3.529-4.828 7.231-3.811 7.231-3.811s-.936-.133 0 0c-3.528 5.384-1.814 8.57-1.005 10.42.743 5.2-.295 13.532-.295 13.532s-1.485 9.284 0 0c1.486-9.284.224-10.764.666-13.794 1.427-4.213 5.223-5.73 7.536-6.426-1.363 3.9-.227 7.753-.358 10.51-.263 4.465-3.202 10.453-3.202 10.453l-7.055 23.396z" transform="matrix(-1.51989 0 0 -1.52374 834.493 331.878)"/><g fill="none"><path d="M256.618 70.531c-3.808.854-4.595 6.237-4.595 6.237s.13 4.135 1.247 8.206c.262 3.282-.263 12.473-.263 12.473l.263 19.563" transform="matrix(-1.51989 0 0 -1.52374 834.493 331.878)"/><path d="M263.38 74.404s-3.283 3.808-3.611 5.055c-.788 3.48-.656 5.252-.328 8.534-.722 4.465-2.298 9.913-2.298 9.913l-3.742 16.937" transform="matrix(-1.51989 0 0 -1.52374 834.493 331.878)"/></g><path fill="#fdd502" fill-rule="evenodd" d="m253.083 118.575-2.414-24.51s.733 6.409 0 0c-.012-7.984-1.114-10.584-1.114-10.584s.84 2.748 0 0c-1.366-5.57-.497-8.363.01-9.186 3.529-4.828 7.231-3.811 7.231-3.811s-.936-.133 0 0c-3.528 5.384-1.814 8.57-1.005 10.42.743 5.2-.295 13.532-.295 13.532s-1.485 9.284 0 0c1.486-9.284.224-10.764.666-13.794 1.427-4.213 5.223-5.73 7.536-6.426-1.363 3.9-.227 7.753-.358 10.51-.263 4.465-3.202 10.453-3.202 10.453l-7.055 23.396z" transform="matrix(-1.4042 .58311 -.58164 -1.40776 874.722 170.779)"/><g fill="none"><path d="M256.618 70.531c-3.808.854-4.595 6.237-4.595 6.237s.13 4.135 1.247 8.206c.262 3.282-.263 12.473-.263 12.473l.263 19.563" transform="matrix(-1.4042 .58311 -.58164 -1.40776 874.722 170.779)"/><path d="M263.38 74.404s-3.283 3.808-3.611 5.055c-.788 3.48-.656 5.252-.328 8.534-.722 4.465-2.298 9.913-2.298 9.913l-3.742 16.937" transform="matrix(-1.4042 .58311 -.58164 -1.40776 874.722 170.779)"/></g><path fill="#fdd502" fill-rule="evenodd" d="m253.083 118.575-2.414-24.51s.733 6.409 0 0c-.012-7.984-1.114-10.584-1.114-10.584s.84 2.748 0 0c-1.366-5.57-.497-8.363.01-9.186 3.529-4.828 7.231-3.811 7.231-3.811s-.936-.133 0 0c-3.528 5.384-1.814 8.57-1.005 10.42.743 5.2-.295 13.532-.295 13.532s-1.485 9.284 0 0c1.486-9.284.224-10.764.666-13.794 1.427-4.213 5.223-5.73 7.536-6.426-1.363 3.9-.227 7.753-.358 10.51-.263 4.465-3.202 10.453-3.202 10.453l-7.055 23.396z" transform="scale(-1.51989 -1.52374) rotate(-45 -284.603 672.996)"/><g fill="none"><path d="M256.618 70.531c-3.808.854-4.595 6.237-4.595 6.237s.13 4.135 1.247 8.206c.262 3.282-.263 12.473-.263 12.473l.263 19.563" transform="scale(-1.51989 -1.52374) rotate(-45 -284.603 672.996)"/><path d="M263.38 74.404s-3.283 3.808-3.611 5.055c-.788 3.48-.656 5.252-.328 8.534-.722 4.465-2.298 9.913-2.298 9.913l-3.742 16.937" transform="scale(-1.51989 -1.52374) rotate(-45 -284.603 672.996)"/></g><path fill="#fdd502" fill-rule="evenodd" d="m253.083 118.575-2.414-24.51s.733 6.409 0 0c-.012-7.984-1.114-10.584-1.114-10.584s.84 2.748 0 0c-1.366-5.57-.497-8.363.01-9.186 3.529-4.828 7.231-3.811 7.231-3.811s-.936-.133 0 0c-3.528 5.384-1.814 8.57-1.005 10.42.743 5.2-.295 13.532-.295 13.532s-1.485 9.284 0 0c1.486-9.284.224-10.764.666-13.794 1.427-4.213 5.223-5.73 7.536-6.426-1.363 3.9-.227 7.753-.358 10.51-.263 4.465-3.202 10.453-3.202 10.453l-7.055 23.396z" transform="matrix(-.58164 1.40776 -1.4042 -.58311 764.627 -136.607)"/><g fill="none"><path d="M256.618 70.531c-3.808.854-4.595 6.237-4.595 6.237s.13 4.135 1.247 8.206c.262 3.282-.263 12.473-.263 12.473l.263 19.563" transform="matrix(-.58164 1.40776 -1.4042 -.58311 764.627 -136.607)"/><path d="M263.38 74.404s-3.283 3.808-3.611 5.055c-.788 3.48-.656 5.252-.328 8.534-.722 4.465-2.298 9.913-2.298 9.913l-3.742 16.937" transform="matrix(-.58164 1.40776 -1.4042 -.58311 764.627 -136.607)"/></g><path fill="#fdd502" fill-rule="evenodd" d="m253.083 118.575-2.414-24.51s.733 6.409 0 0c-.012-7.984-1.114-10.584-1.114-10.584s.84 2.748 0 0c-1.366-5.57-.497-8.363.01-9.186 3.529-4.828 7.231-3.811 7.231-3.811s-.936-.133 0 0c-3.528 5.384-1.814 8.57-1.005 10.42.743 5.2-.295 13.532-.295 13.532s-1.485 9.284 0 0c1.486-9.284.224-10.764.666-13.794 1.427-4.213 5.223-5.73 7.536-6.426-1.363 3.9-.227 7.753-.358 10.51-.263 4.465-3.202 10.453-3.202 10.453l-7.055 23.396z" transform="matrix(0 1.52374 -1.51989 0 631.607 -235.58)"/><g fill="none"><path d="M256.618 70.531c-3.808.854-4.595 6.237-4.595 6.237s.13 4.135 1.247 8.206c.262 3.282-.263 12.473-.263 12.473l.263 19.563" transform="matrix(0 1.52374 -1.51989 0 631.607 -235.58)"/><path d="M263.38 74.404s-3.283 3.808-3.611 5.055c-.788 3.48-.656 5.252-.328 8.534-.722 4.465-2.298 9.913-2.298 9.913l-3.742 16.937" transform="matrix(0 1.52374 -1.51989 0 631.607 -235.58)"/></g><path fill="#fdd502" fill-rule="evenodd" d="m253.083 118.575-2.414-24.51s.733 6.409 0 0c-.012-7.984-1.114-10.584-1.114-10.584s.84 2.748 0 0c-1.366-5.57-.497-8.363.01-9.186 3.529-4.828 7.231-3.811 7.231-3.811s-.936-.133 0 0c-3.528 5.384-1.814 8.57-1.005 10.42.743 5.2-.295 13.532-.295 13.532s-1.485 9.284 0 0c1.486-9.284.224-10.764.666-13.794 1.427-4.213 5.223-5.73 7.536-6.426-1.363 3.9-.227 7.753-.358 10.51-.263 4.465-3.202 10.453-3.202 10.453l-7.055 23.396z" transform="scale(1.51989 1.52374) rotate(67.5 290.416 141.313)"/><g fill="none"><path d="M256.618 70.531c-3.808.854-4.595 6.237-4.595 6.237s.13 4.135 1.247 8.206c.262 3.282-.263 12.473-.263 12.473l.263 19.563" transform="scale(1.51989 1.52374) rotate(67.5 290.416 141.313)"/><path d="M263.38 74.404s-3.283 3.808-3.611 5.055c-.788 3.48-.656 5.252-.328 8.534-.722 4.465-2.298 9.913-2.298 9.913l-3.742 16.937" transform="scale(1.51989 1.52374) rotate(67.5 290.416 141.313)"/></g><path fill="#fdd502" fill-rule="evenodd" d="m253.083 118.575-2.414-24.51s.733 6.409 0 0c-.012-7.984-1.114-10.584-1.114-10.584s.84 2.748 0 0c-1.366-5.57-.497-8.363.01-9.186 3.529-4.828 7.231-3.811 7.231-3.811s-.936-.133 0 0c-3.528 5.384-1.814 8.57-1.005 10.42.743 5.2-.295 13.532-.295 13.532s-1.485 9.284 0 0c1.486-9.284.224-10.764.666-13.794 1.427-4.213 5.223-5.73 7.536-6.426-1.363 3.9-.227 7.753-.358 10.51-.263 4.465-3.202 10.453-3.202 10.453l-7.055 23.396z" transform="scale(1.51989 1.52374) rotate(45 299.87 161.299)"/><g fill="none"><path d="M256.618 70.531c-3.808.854-4.595 6.237-4.595 6.237s.13 4.135 1.247 8.206c.262 3.282-.263 12.473-.263 12.473l.263 19.563" transform="scale(1.51989 1.52374) rotate(45 299.87 161.299)"/><path d="M263.38 74.404s-3.283 3.808-3.611 5.055c-.788 3.48-.656 5.252-.328 8.534-.722 4.465-2.298 9.913-2.298 9.913l-3.742 16.937" transform="scale(1.51989 1.52374) rotate(45 299.87 161.299)"/></g><path fill="#fdd502" fill-rule="evenodd" d="m253.083 118.575-2.414-24.51s.733 6.409 0 0c-.012-7.984-1.114-10.584-1.114-10.584s.84 2.748 0 0c-1.366-5.57-.497-8.363.01-9.186 3.529-4.828 7.231-3.811 7.231-3.811s-.936-.133 0 0c-3.528 5.384-1.814 8.57-1.005 10.42.743 5.2-.295 13.532-.295 13.532s-1.485 9.284 0 0c1.486-9.284.224-10.764.666-13.794 1.427-4.213 5.223-5.73 7.536-6.426-1.363 3.9-.227 7.753-.358 10.51-.263 4.465-3.202 10.453-3.202 10.453l-7.055 23.396z" transform="matrix(1.4042 .58311 -.58164 1.40776 164.306 -165.537)"/><g fill="none"><path d="M256.618 70.531c-3.808.854-4.595 6.237-4.595 6.237s.13 4.135 1.247 8.206c.262 3.282-.263 12.473-.263 12.473l.263 19.563" transform="matrix(1.4042 .58311 -.58164 1.40776 164.306 -165.537)"/><path d="M263.38 74.404s-3.283 3.808-3.611 5.055c-.788 3.48-.656 5.252-.328 8.534-.722 4.465-2.298 9.913-2.298 9.913l-3.742 16.937" transform="matrix(1.4042 .58311 -.58164 1.40776 164.306 -165.537)"/></g></g><path fill="#135ecb" stroke="#afc6e9" stroke-linejoin="round" stroke-width=".595411" d="M344.276 112.13a28.841 28.841 0 1 1-57.683 0 28.841 28.841 0 1 1 57.683 0z" transform="matrix(1.29192 0 0 1.29192 42.483 5.136)"/><path fill="#135ecb" fill-rule="evenodd" stroke="#afc6e9" stroke-width="1.999987" d="m170.698 284.954-11.92 15.21 14.087 9.053 11.559 1.81.722-15.571-2.528-2.897-.361-4.708-11.559-2.897z" transform="matrix(.38462 0 0 .38462 375 75)"/><path fill="#fdd502" stroke="#806600" stroke-width=".67229" d="M338.811 115.47a22.77 22.77 0 1 1-45.539 0 22.77 22.77 0 1 1 45.54 0z" transform="matrix(-.66594 .93042 -.93042 -.66594 767.901 -67.156)"/><path fill="#fdd502" stroke="#806600" stroke-linejoin="round" stroke-width=".560604" d="m226.916 102.176 10.546 14.652-8.981-15.666 9.06 15.615-7.403-16.47 7.485 16.427-5.753-17.117 5.839 17.083-4.047-17.599 4.136 17.573-2.302-17.91 2.393 17.893-.535-18.05.628 18.042 1.236-18.016-1.143 18.017 2.996-17.808-2.904 17.818 4.727-17.429-4.636 17.448 6.413-16.881-6.324 16.909 8.036-16.171-7.95 16.207 9.582-15.305-9.501 15.35 11.037-14.293-10.96 14.346 12.384-13.143-12.313 13.202 13.613-11.865-13.548 11.932 14.71-10.474-14.652 10.546 15.666-8.981-15.615 9.06 16.47-7.403-16.427 7.485 17.117-5.753-17.083 5.839 17.599-4.047-17.573 4.136 17.91-2.302-17.893 2.394 18.05-.536-18.042.628 18.016 1.236-18.017-1.143 17.808 2.996-17.818-2.904 17.429 4.727-17.448-4.636 16.881 6.413-16.909-6.324 16.171 8.036-16.207-7.95 15.305 9.582-15.35-9.501 14.293 11.037-14.346-10.96 13.143 12.384-13.202-12.313 11.865 13.613-11.932-13.548 10.474 14.71-10.546-14.652 8.981 15.666-9.06-15.615 7.403 16.47-7.485-16.427 5.753 17.117-5.839-17.083 4.047 17.599-4.136-17.573 2.302 17.91-2.393-17.893.535 18.05-.628-18.042-1.236 18.016 1.143-18.017-2.996 17.808 2.904-17.818-4.727 17.429 4.636-17.448-6.413 16.881 6.324-16.909-8.036 16.171 7.95-16.207-9.582 15.305 9.501-15.35-11.037 14.293 10.96-14.346-12.384 13.143 12.313-13.202-13.613 11.865 13.548-11.932-14.71 10.474 14.652-10.546-15.666 8.981 15.615-9.06-16.47 7.403 16.427-7.485-17.117 5.753 17.083-5.839-17.599 4.047 17.573-4.136-17.91 2.302 17.893-2.393-18.05.535 18.042-.628-18.016-1.236 18.017 1.143-17.808-2.996 17.818 2.904-17.429-4.727 17.448 4.636-16.881-6.413 16.909 6.324-16.171-8.036 16.207 7.95-15.305-9.582 15.35 9.501-14.293-11.036 14.346 10.96-13.143-12.385 13.202 12.313-11.865-13.613 11.932 13.548z" transform="matrix(1.37214 0 0 1.37214 123.406 -11.357)"/><path fill="#ececec" stroke="gray" stroke-linejoin="round" stroke-width=".505466" d="M307.238 130.953a1.214 1.214 0 1 1-2.43 0 1.214 1.214 0 1 1 2.43 0z" transform="matrix(1.51989 0 0 1.52374 -29.357 -20.531)"/><path fill="#ececec" stroke="gray" stroke-linejoin="round" stroke-width=".505466" d="M307.238 130.953a1.214 1.214 0 1 1-2.43 0 1.214 1.214 0 1 1 2.43 0z" transform="matrix(1.51989 0 0 1.52374 -.855 -20.531)"/><path fill="#135ecb" fill-rule="evenodd" stroke="#afc6e9" stroke-width="1.999987" d="m180.146 263.392-3.065 11.266 6.13 18.949 12.77 1.024-3.575-6.657 3.065 6.145 11.238-.512 2.554-14.34 3.576-4.097-2.044-9.73-20.433-2.56z" transform="matrix(.38462 0 0 .38462 375 75)"/><path fill="#135ecb" fill-rule="evenodd" stroke="#afc6e9" stroke-width="1.999987" d="m212.84 276.479 12.44 16.033 7.209 6.27-7.137-6.625 15.863 1.749-3.304 16.325-10.22 6.79-11.112-3.37-9.117-22.504 1.606-9.145 3.772-5.523z" transform="matrix(.38462 0 0 .38462 375 75)"/><g stroke="gray"><path fill="#ececec" stroke-width=".962473" d="m198.719 156.406-.031.656c.406.149.679.268.843.375.165.108.283.241.375.407.092.165.164.4.188.687.024.288.015.753-.031 1.375l-.875 11.688c-.05.667-.105 1.148-.188 1.469-.083.32-.235.557-.437.718-.203.162-.587.304-1.157.406l-.062.657 5.687.437.063-.656c-.407-.14-.698-.284-.875-.406a1.1 1.1 0 0 1-.375-.438 1.734 1.734 0 0 1-.156-.656c-.02-.283-.014-.74.03-1.344l.407-5.656 7.531.563-.406 5.656c-.056.748-.15 1.284-.25 1.594-.1.31-.259.517-.469.656-.21.138-.557.254-1.062.344l-.063.656 5.688.437.031-.656a4.305 4.305 0 0 1-.75-.313c-.16-.093-.292-.206-.375-.312s-.136-.244-.188-.406-.085-.362-.093-.625-.008-.665.031-1.188l.875-11.719c.055-.739.154-1.252.25-1.562.096-.31.227-.544.438-.688.21-.143.579-.255 1.093-.343l.063-.656-5.688-.407-.031.656c.521.184.862.365 1.031.532.17.166.289.393.344.687.055.295.027.81-.031 1.594l-.344 4.813-7.531-.563.375-4.781c.046-.622.084-1.081.156-1.375.072-.294.167-.515.281-.656.115-.142.286-.258.47-.344.182-.086.47-.18.874-.25l.031-.656-5.687-.407zm-11.5 1.125c-.782.049-1.58.16-2.406.313-1.574.292-2.853.921-3.875 1.906-1.023.985-1.737 2.234-2.094 3.781-.358 1.547-.351 3.294 0 5.188.564 3.04 1.576 5.2 3 6.531 1.424 1.331 3.25 1.792 5.5 1.375.818-.152 1.525-.37 2.125-.656a6.865 6.865 0 0 0 1.656-1.125l1.188.875.968-.469-.844-4.625a13.197 13.197 0 0 1-.187-1.281 2.978 2.978 0 0 1 .031-.813c.047-.22.147-.395.281-.562a2.03 2.03 0 0 1 .625-.5l-.093-.656-5.406 1 .125.656c.512.034.906.125 1.156.281.25.156.443.41.594.75.15.34.289.887.437 1.688l.156.812c.177.951.047 1.698-.375 2.25s-1.17.93-2.219 1.125c-.986.183-1.864.033-2.656-.469-.792-.501-1.46-1.359-2.031-2.531-.572-1.172-1.02-2.601-1.344-4.344-.318-1.716-.398-3.242-.219-4.531.18-1.289.574-2.305 1.188-3.063a3.87 3.87 0 0 1 2.375-1.406c.702-.13 1.288-.137 1.781-.031.494.106.963.362 1.375.75.412.388.8.963 1.188 1.719l1.344-.25-.688-3.688a22.058 22.058 0 0 0-2.656 0zm34.469 1.563-1.532 4.469 1.25.437a11.87 11.87 0 0 1 1.125-1.5c.338-.386.663-.676.969-.844.306-.167.588-.231.875-.219.287.013.63.081 1.031.22l1.625.562-4.5 13.125a7.406 7.406 0 0 1-.5 1.156 2.319 2.319 0 0 1-.406.563c-.134.126-.28.194-.438.25a1.687 1.687 0 0 1-.562.093c-.22.001-.473-.003-.75-.031l-.188.625 5.844 2 .219-.625c-.387-.238-.65-.428-.813-.594-.162-.166-.288-.379-.343-.594s-.047-.462 0-.78c.047-.32.139-.746.312-1.25l4.531-13.126 1.625.563c.47.161.798.325 1 .5.203.175.372.394.5.687.13.293.213.697.25 1.188.038.49.034 1.137-.03 1.937l1.25.438 1.53-4.469-13.874-4.781zm-50.907 2.562-5.344 2.063.25.625c.43-.04.744-.058.938-.031.194.026.377.108.531.218.154.11.293.282.438.532.145.249.337.668.562 1.25l4.219 10.937c.241.624.406 1.113.469 1.438.062.324.02.61-.094.843-.113.233-.404.507-.875.844l.25.625 5.344-2.063-.25-.625c-.427.05-.757.066-.969.032a1.136 1.136 0 0 1-.531-.25 1.782 1.782 0 0 1-.438-.532c-.139-.246-.313-.653-.531-1.218l-4.219-10.938c-.225-.582-.376-1.016-.437-1.312-.061-.297-.075-.542-.031-.719.043-.177.121-.344.25-.5.128-.156.383-.358.718-.594l-.25-.625zm-16.344 7.75-4.906 2.938.344.562c.417-.113.741-.18.938-.187.196-.007.36.043.53.125.171.082.347.216.532.437.185.221.46.622.781 1.156l6.031 10.032c.345.573.57 1.034.688 1.344.117.309.135.594.063.843s-.313.556-.72.969l.345.594 10.468-6.281-2.594-4.813-1.156.688c.269.798.456 1.396.563 1.812.107.416.164.791.187 1.094.024.302.01.56-.031.781-.042.22-.109.417-.219.594s-.267.357-.468.531c-.202.174-.48.362-.813.563L161.969 185l-7.156-11.875c-.336-.558-.55-.997-.657-1.281-.107-.284-.143-.508-.125-.688.019-.18.057-.34.156-.5.1-.16.309-.39.594-.687zm96.5 4.531c-1.365-.113-2.747.212-4.125.97-1.377.757-2.69 1.914-3.937 3.5-1.012 1.286-1.735 2.516-2.188 3.655-.452 1.14-.659 2.2-.625 3.188s.271 1.887.75 2.719c.48.831 1.147 1.58 2 2.25 1.209.95 2.49 1.512 3.844 1.656 1.354.144 2.728-.184 4.125-.938 1.398-.753 2.755-1.961 4.063-3.625 1.224-1.556 2.053-3.04 2.469-4.468.415-1.428.393-2.763-.032-4-.425-1.237-1.266-2.35-2.531-3.344-1.187-.933-2.447-1.45-3.812-1.563zm1 1.594c.694.062 1.36.341 2 .844.726.57 1.191 1.295 1.375 2.188.185.892.017 1.98-.468 3.25-.486 1.268-1.313 2.669-2.531 4.218-1 1.273-2.013 2.291-3.032 3.031-1.019.74-2.009 1.15-2.937 1.22-.929.069-1.788-.204-2.563-.813-1.222-.961-1.695-2.269-1.437-3.906.258-1.638 1.253-3.537 2.969-5.72.754-.959 1.496-1.764 2.25-2.437.753-.673 1.514-1.186 2.25-1.5.735-.313 1.431-.437 2.125-.375zm-113.593 6.625c-.849.562-1.507 1.062-2 1.5a18.2 18.2 0 0 0-1.438 1.406c-.794.88-1.343 1.797-1.656 2.75-.313.954-.36 1.867-.125 2.72.235.852.717 1.601 1.469 2.28.516.467 1.11.8 1.75.97.639.169 1.34.181 2.125.062.784-.12 1.745-.38 2.844-.813 1.136-.448 2.027-.752 2.687-.875.66-.123 1.219-.103 1.719.031.5.135.997.42 1.5.875.785.71 1.22 1.461 1.25 2.25.03.79-.322 1.59-1.031 2.375-.516.57-1.009.943-1.5 1.157-.492.213-1.015.3-1.563.218s-1.195-.319-1.906-.718l-.906 1 2.75 2.468c1.598-1.053 2.891-2.103 3.843-3.156a9.771 9.771 0 0 0 1.406-1.969c.357-.67.576-1.331.625-2 .05-.668-.088-1.339-.375-2-.286-.66-.764-1.332-1.468-1.968-.63-.57-1.32-.932-2.031-1.094-.713-.162-1.454-.17-2.25-.031-.797.14-1.795.467-3 .937-.992.396-1.798.643-2.407.75-.609.108-1.141.095-1.625-.031-.483-.126-.992-.413-1.469-.844-.449-.406-.731-.848-.875-1.343a2.6 2.6 0 0 1 0-1.5c.152-.491.45-.94.844-1.375.455-.504.866-.866 1.281-1.063.416-.197.897-.25 1.438-.187.54.062 1.176.277 1.906.656l.906-1-2.718-2.438zm127.531 3.563-.531.406c.172.425.266.714.281.906.015.193.002.376-.063.531-.064.156-.203.346-.375.532-.171.185-.53.482-1.093.906l-7.125 5.375c-.932.701-1.627 1.365-2.094 2a4.957 4.957 0 0 0-.906 2.063 4.234 4.234 0 0 0 .187 2.25c.275.771.749 1.594 1.406 2.468.544.723 1.103 1.298 1.657 1.719.554.42 1.078.729 1.625.906a4.682 4.682 0 0 0 1.687.219 5.92 5.92 0 0 0 1.906-.469c.68-.285 1.4-.72 2.188-1.312l6.969-5.25c.592-.446 1.054-.717 1.344-.844.289-.127.534-.182.78-.125.248.058.608.256 1.032.594l.531-.375-3.281-4.344-.531.406c.216.528.33.923.312 1.156-.017.234-.127.453-.312.688-.185.235-.59.59-1.219 1.063l-6.781 5.093c-.889.669-1.62 1.166-2.219 1.469-.598.303-1.164.453-1.719.469a3.003 3.003 0 0 1-1.531-.344c-.465-.25-.9-.62-1.281-1.125-.413-.55-.686-1.073-.844-1.531a2.941 2.941 0 0 1-.156-1.375c.062-.466.29-.962.656-1.469.365-.507.893-1.035 1.594-1.563l7.687-5.75c.593-.445 1.016-.742 1.313-.875.296-.132.566-.157.812-.093.246.064.595.265 1 .594l.531-.407-3.437-4.562zm-139.063 8.375-1.624 2.375 5.624 3.219.813-1.188zm-4.718 8.656-1.938 4.469.625.25c.273-.335.472-.54.625-.656.154-.116.321-.193.5-.22.179-.025.408.013.688.094.28.082.708.222 1.281.47l2.625 1.155c1.212.524 2.573 1.07 4.094 1.688 1.52.618 2.538 1.041 3.062 1.219l-.062.156c-.558.015-1.07.052-1.531.094-.462.042-.998.104-1.625.187l-12.938 1.688-1.688 3.906.626.281c.272-.335.5-.567.656-.687.155-.12.313-.218.5-.25.186-.033.408-.01.687.062.28.072.709.253 1.281.5l10.782 4.656c.614.266 1.037.474 1.312.657.276.183.476.412.563.656.086.244.09.647 0 1.219l.594.25 1.968-4.532-.594-.28c-.264.338-.483.59-.656.718a1.203 1.203 0 0 1-.562.219c-.187.022-.414-.02-.688-.094-.273-.074-.694-.228-1.25-.469l-2.531-1.093a364.078 364.078 0 0 0-5-2.125c-1.683-.699-2.867-1.157-3.531-1.375l.093-.188c.392-.018.777-.055 1.188-.094.41-.039 1.091-.13 2-.25l14.625-1.906.656-1.562-13.937-6.032c-.606-.262-1.037-.46-1.282-.625-.244-.164-.408-.316-.5-.468a1.259 1.259 0 0 1-.156-.532c-.016-.19 0-.49.063-.906l-.625-.25zm156.812 2.094-.594.25c.05.43.054.742.032.937-.023.195-.081.375-.188.531-.106.157-.285.288-.531.438-.246.15-.673.356-1.25.594l-10.844 4.469c-.618.255-1.083.43-1.406.5s-.608.045-.844-.063c-.235-.108-.527-.38-.875-.844l-.594.25 2.157 5.281.625-.25c-.05-.429-.054-.742-.031-.937a1.21 1.21 0 0 1 .187-.531c.1-.15.279-.28.531-.438.253-.158.68-.377 1.281-.625l4.25-1.75.563 1.375c.169.41.274.714.313.938.038.224.047.458 0 .687-.048.23-.194.507-.407.844-.213.337-.565.81-1.062 1.406l-1.625 1.969a75.065 75.065 0 0 0-1.219 1.5c-.393.494-.75.968-1.063 1.469l1.438 3.469.625-.25c-.099-.43-.13-.783-.063-1.094.068-.312.217-.666.438-1.031.221-.366.564-.833 1.031-1.407l1.594-1.969c.637-.78 1.074-1.444 1.313-1.968a3.87 3.87 0 0 0 .343-1.656l.125-.063c.972 1.076 1.969 1.762 3.031 2.063 1.063.3 2.168.222 3.313-.25 1.496-.618 2.408-1.55 2.719-2.813.31-1.263.056-2.888-.75-4.844zm.438 4.281c.226.454.502 1.06.812 1.813.386.936.549 1.74.5 2.406-.048.665-.273 1.26-.687 1.75-.415.489-1.019.891-1.813 1.219-.76.313-1.476.451-2.094.437-.617-.014-1.142-.142-1.593-.406a3.446 3.446 0 0 1-1.094-1c-.29-.409-.606-.992-.906-1.719l-.563-1.406zM113.78 224.969l-1.969 12.531.657.125c.18-.393.348-.689.469-.844.12-.155.265-.265.437-.344.173-.078.4-.124.688-.125.288 0 .727.06 1.343.157L127 238.28a8.797 8.797 0 0 1 1.469.344c.312.109.543.254.687.469s.226.61.281 1.187l.657.094 1.969-12.406-4.657-.969-.219 1.312c.58.275 1.012.473 1.313.625.3.153.604.333.875.532.27.198.473.43.625.656.152.225.248.466.281.75.033.284.006.656-.062 1.094l-.656 4.156-7.72-1.219.438-2.875c.066-.42.195-.714.344-.906.15-.192.36-.329.656-.438.297-.108.726-.209 1.281-.25l.188-1.25-5.125-.812-.219 1.281c.55.224.943.404 1.188.594.245.19.423.415.5.656.076.241.093.545.031.938l-.469 2.875-7.031-1.094.687-4.25c.055-.348.13-.633.22-.875.088-.242.211-.432.374-.594.163-.162.347-.32.594-.437a5.19 5.19 0 0 1 .906-.313c.353-.09.76-.153 1.219-.219l.219-1.312-4.063-.656zm164.563 8.531c-3.087.183-5.378.908-6.875 2.156-1.498 1.248-2.198 2.998-2.063 5.281.05.83.197 1.589.406 2.22.21.63.51 1.215.907 1.78l-1 1.063.344 1.031 4.687-.281c.56-.033 1.008-.045 1.313-.031a2.6 2.6 0 0 1 .75.125c.212.073.412.19.562.344.15.154.279.4.406.718l.656-.03-.312-5.47-.656.032c-.097.503-.252.865-.438 1.093-.186.229-.456.393-.812.5-.356.107-.938.17-1.75.219l-.813.063c-.966.057-1.692-.17-2.187-.657-.496-.487-.78-1.247-.844-2.312-.06-1.002.217-1.87.813-2.594.595-.724 1.515-1.297 2.75-1.719 1.234-.422 2.73-.676 4.5-.781 1.742-.103 3.243.006 4.5.344 1.256.337 2.23.86 2.906 1.562.675.703 1.035 1.548 1.094 2.532.042.713-.021 1.304-.188 1.78-.167.477-.47.89-.906 1.25-.436.362-1.046.709-1.844 1l.063 1.313 3.718-.218c.179-.962.295-1.812.344-2.594.048-.782.05-1.598 0-2.438-.095-1.597-.555-2.957-1.406-4.093-.851-1.137-2.04-1.986-3.531-2.532-1.491-.545-3.172-.77-5.094-.656zM112 243.469l-.656.062.469 5.656.656-.03c.043-.603.178-1.046.406-1.313.228-.268.615-.426 1.156-.469.117-.01.239-.003.375 0 .137.003.286.005.469.031.183.027.369.055.563.094.193.04.386.084.562.125l11.406 3-10.781 4.031c-.431.17-.806.306-1.156.406-.35.1-.694.164-1 .188-.334.026-.606-.001-.813-.094a1.074 1.074 0 0 1-.5-.437c-.125-.208-.239-.529-.344-.938l-.656.063.5 6.094.656-.032c.06-.385.154-.707.313-.937.159-.23.417-.449.75-.656.333-.208.886-.474 1.688-.782l14.718-5.718-.125-1.782-15.437-4.437c-.854-.25-1.48-.465-1.875-.656-.396-.192-.686-.382-.875-.594-.19-.212-.35-.513-.469-.875zm160.844 9.687c-.785.078-1.482.323-2.125.719s-1.174.966-1.563 1.688-.666 1.613-.875 2.687c-.172.888-.246 1.682-.187 2.375.059.693.203 1.288.437 1.813.235.524.568.974.969 1.375.45.437.992.827 1.625 1.125.667.313 1.47.562 2.438.75l8.562 1.656c.728.141 1.243.276 1.531.406.288.13.502.31.625.531.123.222.186.585.219 1.125l.656.156 1.031-5.312-.656-.156c-.247.514-.472.856-.656 1-.185.144-.42.23-.719.25-.298.02-.821-.038-1.594-.188l-8.312-1.625c-1.092-.212-1.968-.446-2.594-.687-.625-.241-1.117-.568-1.5-.969-.382-.401-.655-.831-.781-1.344-.126-.512-.12-1.097 0-1.719.13-.674.328-1.231.563-1.656.234-.424.518-.765.906-1.031.387-.266.91-.432 1.531-.5.621-.068 1.358-.01 2.219.156l9.437 1.844c.728.141 1.235.275 1.531.406.297.132.508.306.625.531.118.226.191.604.22 1.125l.656.125 1.062-5.593-.656-.125c-.2.412-.367.672-.5.812s-.28.256-.438.313c-.158.057-.34.065-.594.062-.252-.003-.745-.053-1.437-.187l-8.75-1.719c-1.145-.222-2.122-.297-2.906-.219zm-141.656 5.969-.625.219c.034.417-.002.773-.125 1.062-.124.289-.358.568-.657.844-.299.276-.743.634-1.344 1.063l-12.875 9.156.657 2.031 16.031.625c1.004.037 1.807.148 2.406.344.6.196 1.013.514 1.25.969l.656-.22-1.843-5.5-.625.22c.103.566.06 1.033-.094 1.375-.153.341-.485.578-1 .75a4.343 4.343 0 0 1-.906.218c-.35.04-.885.043-1.594.031l-1.406-.03-2-6 1.5-1.032c.377-.269.746-.475 1.062-.656.316-.182.615-.31.907-.406.308-.103.562-.136.78-.094.22.041.422.136.595.312s.365.475.593.875l.625-.218-1.968-5.938zm-5.125 7.813 1.812 5.375-9.281-.157zm139.656 1.656-2.156 5.312.593.25c.258-.344.486-.588.656-.719.17-.13.345-.192.532-.218.186-.027.412-.005.687.062.275.068.69.21 1.25.438l10.875 4.406c.578.235.993.435 1.25.594.258.158.432.316.531.469.1.152.162.33.188.53.026.202.027.501-.031.907l.594.25 2.156-5.281-.594-.25c-.266.34-.472.564-.625.687a1.26 1.26 0 0 1-.531.25c-.186.037-.407.003-.688-.062-.28-.066-.703-.202-1.281-.438l-10.875-4.437c-.62-.253-1.064-.448-1.344-.625a1.377 1.377 0 0 1-.562-.656c-.092-.243-.109-.645-.031-1.22l-.594-.25zm-128.094 8.281-4.156 2.313.719 1.125c.616-.174 1.079-.293 1.406-.375a6.255 6.255 0 0 1 1-.157 2.69 2.69 0 0 1 .906.063c.263.07.476.182.688.375.211.192.451.5.687.875l2.25 3.562-6.625 4.156-1.563-2.468c-.226-.36-.33-.664-.343-.906s.035-.474.187-.75c.152-.277.42-.636.813-1.032l-.656-1.062-4.407 2.75.656 1.094c.563-.193 1.004-.295 1.313-.313.31-.018.565.025.781.156.216.132.445.382.656.719l1.532 2.438-6 3.78-2.281-3.624c-.188-.299-.345-.572-.438-.813a1.53 1.53 0 0 1-.094-.687c.017-.23.078-.469.188-.719s.262-.543.469-.844c.206-.3.446-.618.75-.969l-.688-1.125-3.469 2.188 6.719 10.719.562-.344c-.121-.415-.176-.71-.187-.906-.011-.196.015-.39.094-.563.078-.172.22-.341.437-.531s.597-.45 1.125-.781l9.938-6.25c.566-.356 1.005-.596 1.312-.719.307-.123.594-.16.844-.094.25.067.58.321 1 .719l.562-.375-6.687-10.625zm124.781.156-2.687 4.094c-.831 1.261-1.439 2.309-1.813 3.156-.374.847-.606 1.689-.687 2.469a6.924 6.924 0 0 0 .25 2.688c.289.991.815 1.976 1.594 2.906.778.93 1.817 1.815 3.093 2.656 1.261.83 2.449 1.366 3.563 1.656 1.114.29 2.194.349 3.219.125 1.024-.224 1.993-.703 2.906-1.406s1.84-1.76 2.781-3.188l3.25-4.968-.563-.375c-.332.29-.576.502-.75.594a1.126 1.126 0 0 1-.53.125c-.186.002-.426-.07-.688-.188-.263-.119-.66-.34-1.188-.688l-9.781-6.468c-.521-.344-.908-.585-1.125-.781a1.776 1.776 0 0 1-.438-.563c-.073-.168-.078-.357-.062-.563.016-.205.08-.499.219-.906zm-1.219 4.156L274.563 290c-.273.48-.567.987-.906 1.5-.736 1.117-1.61 1.9-2.594 2.406-.982.506-2.098.676-3.375.469-1.276-.208-2.685-.834-4.218-1.844a17.195 17.195 0 0 1-2-1.531c-.58-.517-1.079-1.044-1.469-1.594a6.32 6.32 0 0 1-.875-1.719 4.466 4.466 0 0 1-.219-1.718c.042-.557.184-1.12.406-1.688.223-.568.551-1.147.97-1.781.387-.589.676-1.03.906-1.313zm-114.875 9.063-.437.469c.194.308.31.544.375.719.066.174.097.334.094.468a1.257 1.257 0 0 1-.094.438 2.526 2.526 0 0 1-.344.562c-.16.21-.42.494-.781.875l-8.031 8.531c-.51.54-.918.914-1.188 1.094-.27.18-.528.24-.781.219-.253-.022-.608-.15-1.063-.406l-.468.469 4.156 3.906.438-.469c-.289-.472-.443-.827-.47-1.063-.025-.235.045-.486.188-.75.143-.263.491-.678 1.031-1.25l3.282-3.5 5.469 5.188-3.282 3.5c-.428.453-.759.755-1 .938-.24.182-.447.306-.625.343a1.265 1.265 0 0 1-.562-.031c-.197-.049-.486-.174-.844-.375l-.469.5 4.156 3.906.47-.468c-.222-.372-.379-.657-.438-.844a1.16 1.16 0 0 1-.031-.563c.033-.186.118-.387.28-.625.164-.238.478-.609.907-1.062l8.063-8.5c.46-.487.827-.835 1.093-1.031.267-.197.522-.284.782-.282s.649.127 1.156.407l.437-.47-4.156-3.937-.437.5c.227.365.377.638.437.844.06.206.043.41 0 .594a1.742 1.742 0 0 1-.281.625c-.163.231-.46.56-.875 1l-3.906 4.125-5.5-5.188 3.906-4.125c.515-.545.914-.916 1.187-1.093.274-.178.531-.244.782-.22.25.026.614.157 1.062.407l.469-.469-4.156-3.906zm105.5 1.875-9.25 8.5 3.032 3.656 1-.906a53.144 53.144 0 0 1-.625-1.313 6.097 6.097 0 0 1-.344-.937c-.089-.324-.146-.635-.125-.906.021-.271.13-.507.281-.75.151-.243.393-.544.719-.844l3.094-2.844 5.281 5.781-2.125 1.938c-.313.287-.576.474-.813.531-.236.057-.512.037-.812-.062-.3-.1-.696-.311-1.156-.625l-.938.875 3.531 3.812.938-.844c-.292-.518-.458-.918-.531-1.218-.074-.301-.09-.577 0-.813s.3-.48.594-.75l2.125-1.969 4.812 5.22-3.156 2.906c-.26.238-.499.427-.719.562-.22.135-.428.225-.656.25-.229.025-.484 0-.75-.063s-.574-.163-.906-.312c-.333-.149-.695-.36-1.094-.594l-.969.906 2.75 3.032 9.344-8.594-.438-.5c-.386.195-.684.329-.875.375-.19.046-.379.046-.562 0-.184-.046-.4-.165-.625-.344-.226-.179-.547-.478-.969-.937l-7.938-8.656c-.452-.493-.76-.877-.937-1.157a1.304 1.304 0 0 1-.219-.812c.02-.259.185-.64.5-1.125z" transform="matrix(.39818 0 0 .40105 370.354 51.563)"/><path fill="#ececec" stroke-width="1.999987" d="m195 127.258-23.582 36.992-39.304 11.097 27.513 33.293-3.93 44.39L195 238.233l39.304 14.797-3.93-44.39 27.512-33.293-39.304-11.097z" transform="matrix(.38462 0 0 .38462 375 75)"/><path fill="#ececec" stroke-width="3.18783" d="m-230.215 192.364-39.695-.091-12.18-37.781 32.167-23.26 32.062 23.407z" transform="matrix(.22967 0 0 .25353 507.41 108.607)"/><path fill="none" stroke-width="1.999987" d="M195.065 127.646 195.05 195M257.808 175.369l-62.92 19.9M132.147 175.369l62.92 19.9M234.031 252.747l-38.971-57.539M156.017 252.747l38.971-57.539" transform="matrix(.38462 0 0 .38462 375 75)"/><g fill="#ececec" stroke-linejoin="round" stroke-width=".549505"><path d="M317.104 111.675a1.822 1.822 0 1 1-3.643 0 1.822 1.822 0 1 1 3.643 0z" transform="matrix(1.31142 0 0 1.49424 32.498 -17.938)"/><path stroke-width="1.278614" d="M305.568 106.97a1.973 1.973 0 1 1-3.947 0 1.973 1.973 0 1 1 3.947 0z" transform="matrix(.5636 0 0 .64217 259.245 73.834)"/><path stroke-width="1.047728" d="M309.06 105.3a3.036 3.036 0 1 1-6.073 0 3.036 3.036 0 1 1 6.072 0z" transform="matrix(.6878 0 0 .78369 223.5 60.008)"/><path stroke-width=".988251" d="M312.247 106.058a3.947 3.947 0 1 1-7.894 0 3.947 3.947 0 1 1 7.894 0z" transform="matrix(.7292 0 0 .83086 214.56 54.603)"/><path stroke-width="1.278614" d="M305.568 106.97a1.973 1.973 0 1 1-3.947 0 1.973 1.973 0 1 1 3.947 0z" transform="matrix(.1365 .62306 -.54683 .15553 468.382 -78.4)"/><path stroke-width="1.047875" d="M309.06 105.3a3.036 3.036 0 1 1-6.073 0 3.036 3.036 0 1 1 6.072 0z" transform="matrix(.16656 .76026 -.66723 .18978 471.57 -121.502)"/><path stroke-width=".98825" d="M312.247 106.058a3.947 3.947 0 1 1-7.894 0 3.947 3.947 0 1 1 7.894 0z" transform="matrix(.1766 .80612 -.7075 .20123 474.36 -133.094)"/><path stroke-width="1.278615" d="M305.568 106.97a1.973 1.973 0 1 1-3.947 0 1.973 1.973 0 1 1 3.947 0z" transform="matrix(-.05493 .63912 -.56092 -.06259 525.38 -59.945)"/><path stroke-width="1.047728" d="M309.06 105.3a3.036 3.036 0 1 1-6.073 0 3.036 3.036 0 1 1 6.072 0z" transform="matrix(-.06703 .77996 -.68453 -.07638 540.415 -99.504)"/><path stroke-width=".988251" d="M312.247 106.058a3.947 3.947 0 1 1-7.894 0 3.947 3.947 0 1 1 7.894 0z" transform="matrix(-.07107 .8269 -.72573 -.08098 545.147 -109.57)"/><path stroke-width="1.278613" d="M305.568 106.97a1.973 1.973 0 1 1-3.947 0 1.973 1.973 0 1 1 3.947 0z" transform="matrix(.50323 .28918 -.2538 .57338 304.01 -4.008)"/><path stroke-width="1.047727" d="M309.06 105.3a3.036 3.036 0 1 1-6.073 0 3.036 3.036 0 1 1 6.072 0z" transform="matrix(.61412 .3529 -.30973 .69973 277.332 -34.424)"/><path stroke-width=".98825" d="M312.247 106.058a3.947 3.947 0 1 1-7.894 0 3.947 3.947 0 1 1 7.894 0z" transform="matrix(.65108 .37415 -.32837 .74185 271.464 -44.002)"/><path stroke-width="1.278615" d="M305.568 106.97a1.973 1.973 0 1 1-3.947 0 1.973 1.973 0 1 1 3.947 0z" transform="matrix(.37105 -.48337 .42423 .42278 281.152 270.456)"/><path stroke-width="1.047728" d="M309.06 105.3a3.036 3.036 0 1 1-6.073 0 3.036 3.036 0 1 1 6.072 0z" transform="matrix(.45282 -.58989 .51772 .51595 248.973 292.764)"/><path stroke-width=".988251" d="M312.247 106.058a3.947 3.947 0 1 1-7.894 0 3.947 3.947 0 1 1 7.894 0z" transform="matrix(.48007 -.6254 .54887 .547 239.904 297.473)"/><path stroke-width="1.278614" d="M305.568 106.97a1.973 1.973 0 1 1-3.947 0 1.973 1.973 0 1 1 3.947 0z" transform="matrix(.21926 -.59159 .5192 .24983 314.515 320.452)"/><path stroke-width="1.047728" d="M309.06 105.3a3.036 3.036 0 1 1-6.073 0 3.036 3.036 0 1 1 6.072 0z" transform="matrix(.26758 -.72195 .63362 .30488 289.288 352.633)"/><path stroke-width=".988251" d="M312.247 106.058a3.947 3.947 0 1 1-7.894 0 3.947 3.947 0 1 1 7.894 0z" transform="matrix(.28368 -.7654 .67176 .32323 281.155 359.918)"/><path stroke-width="1.278615" d="M305.568 106.97a1.973 1.973 0 1 1-3.947 0 1.973 1.973 0 1 1 3.947 0z" transform="matrix(-.44203 -.3984 .34966 -.50365 557.643 343.759)"/><path stroke-width="1.047728" d="M309.06 105.3a3.036 3.036 0 1 1-6.073 0 3.036 3.036 0 1 1 6.072 0z" transform="matrix(-.53944 -.4862 .4267 -.61464 578.024 380.082)"/><path stroke-width=".988251" d="M312.247 106.058a3.947 3.947 0 1 1-7.894 0 3.947 3.947 0 1 1 7.894 0z" transform="matrix(-.5719 -.51545 .45239 -.65163 582.184 390.705)"/><path stroke-width="1.278615" d="M305.568 106.97a1.973 1.973 0 1 1-3.947 0 1.973 1.973 0 1 1 3.947 0z" transform="matrix(-.2745 -.56086 .49224 -.31277 494.05 371.304)"/><path stroke-width="1.047729" d="M309.06 105.3a3.036 3.036 0 1 1-6.073 0 3.036 3.036 0 1 1 6.072 0z" transform="matrix(-.335 -.68446 .60071 -.3817 501.287 413.454)"/><path stroke-width=".988251" d="M312.247 106.058a3.947 3.947 0 1 1-7.894 0 3.947 3.947 0 1 1 7.894 0z" transform="matrix(-.35516 -.72565 .63687 -.40467 502.198 424.861)"/><path stroke-width="1.278615" d="M305.568 106.97a1.973 1.973 0 1 1-3.947 0 1.973 1.973 0 1 1 3.947 0z" transform="matrix(-.45352 .38127 -.33462 -.51674 643.958 84.645)"/><path stroke-width="1.047728" d="M309.06 105.3a3.036 3.036 0 1 1-6.073 0 3.036 3.036 0 1 1 6.072 0z" transform="matrix(-.55346 .46529 -.40836 -.63062 679.833 71.27)"/><path stroke-width=".988251" d="M312.247 106.058a3.947 3.947 0 1 1-7.894 0 3.947 3.947 0 1 1 7.894 0z" transform="matrix(-.58677 .4933 -.43294 -.66857 689.59 68.853)"/><path stroke-width="1.278615" d="M305.568 106.97a1.973 1.973 0 1 1-3.947 0 1.973 1.973 0 1 1 3.947 0z" transform="matrix(-.55168 .13138 -.1153 -.6286 649.515 169.882)"/><path stroke-width="1.047729" d="M309.06 105.3a3.036 3.036 0 1 1-6.073 0 3.036 3.036 0 1 1 6.072 0z" transform="matrix(-.67326 .16033 -.14071 -.76711 686.86 174.242)"/><path stroke-opacity=".941176" stroke-width=".988252" d="M312.247 106.058a3.947 3.947 0 1 1-7.894 0 3.947 3.947 0 1 1 7.894 0z" transform="matrix(-.71378 .16998 -.14918 -.81328 696.527 176.573)"/><path d="M312.854 107.728a1.67 1.67 0 1 1-3.34 0 1.67 1.67 0 1 1 3.34 0z" transform="matrix(1.31142 0 0 1.49424 36.778 -18.28)"/><path d="M312.854 107.728a1.67 1.67 0 1 1-3.34 0 1.67 1.67 0 1 1 3.34 0z" transform="matrix(1.31142 0 0 1.49424 47.043 -18.28)"/><path d="M312.854 107.728a1.67 1.67 0 1 1-3.34 0 1.67 1.67 0 1 1 3.34 0z" transform="matrix(1.31142 0 0 1.49424 49.656 -8.152)"/><path d="M312.854 107.728a1.67 1.67 0 1 1-3.34 0 1.67 1.67 0 1 1 3.34 0z" transform="matrix(1.31142 0 0 1.49424 41.93 -1.382)"/><path d="M312.854 107.728a1.67 1.67 0 1 1-3.34 0 1.67 1.67 0 1 1 3.34 0z" transform="matrix(1.31142 0 0 1.49424 34.129 -8.152)"/><path d="M317.104 111.675a1.822 1.822 0 1 1-3.643 0 1.822 1.822 0 1 1 3.643 0z" transform="matrix(1.31142 0 0 1.49424 36.542 -21.377)"/><path d="M317.104 111.675a1.822 1.822 0 1 1-3.643 0 1.822 1.822 0 1 1 3.643 0z" transform="matrix(1.31142 0 0 1.49424 33.93 -12.494)"/><path d="M317.104 111.675a1.822 1.822 0 1 1-3.643 0 1.822 1.822 0 1 1 3.643 0z" transform="matrix(1.31142 0 0 1.49424 39.143 -12.494)"/><path d="M317.104 111.675a1.822 1.822 0 1 1-3.643 0 1.822 1.822 0 1 1 3.643 0z" transform="matrix(1.31142 0 0 1.49424 40.574 -17.938)"/><path d="M312.854 107.728a1.67 1.67 0 1 1-3.34 0 1.67 1.67 0 1 1 3.34 0z" transform="matrix(1.31142 0 0 1.49424 41.939 -10.687)"/></g></g></svg>